ISO-10303-21;
HEADER;
/* Generated by software containing ST-Developer
 * from STEP Tools, Inc. (www.steptools.com) 
 */

FILE_DESCRIPTION(
/* description */ ('KiCad electronic assembly'),
/* implementation_level */ '2;1');

FILE_NAME(
/* name */ 'Pyae''s Keeb (Case).step',
/* time_stamp */ '2026-09-22T17:14:57-07:00',
/* author */ (''),
/* organization */ (''),
/* preprocessor_version */ 'ST-DEVELOPER v20.2',
/* originating_system */ 'Autodesk Translation Framework v15.15.0.0',
/* authorisation */ '');

FILE_SCHEMA (('AUTOMOTIVE_DESIGN { 1 0 10303 214 3 1 1 }'));
ENDSEC;

DATA;
#10=MECHANICAL_DESIGN_GEOMETRIC_PRESENTATION_REPRESENTATION('',(#13),#1683);
#11=SHAPE_REPRESENTATION_RELATIONSHIP('SRR','None',#1690,#12);
#12=ADVANCED_BREP_SHAPE_REPRESENTATION('',(#14),#1682);
#13=STYLED_ITEM('',(#1699),#14);
#14=MANIFOLD_SOLID_BREP('Body1',#931);
#15=FACE_BOUND('',#287,.T.);
#16=FACE_BOUND('',#295,.T.);
#17=FACE_BOUND('',#297,.T.);
#18=FACE_BOUND('',#299,.T.);
#19=FACE_BOUND('',#301,.T.);
#20=FACE_BOUND('',#303,.T.);
#21=FACE_BOUND('',#305,.T.);
#22=FACE_BOUND('',#307,.T.);
#23=FACE_BOUND('',#309,.T.);
#24=FACE_BOUND('',#322,.T.);
#25=FACE_BOUND('',#323,.T.);
#26=FACE_BOUND('',#324,.T.);
#27=FACE_BOUND('',#325,.T.);
#28=FACE_BOUND('',#326,.T.);
#29=FACE_BOUND('',#327,.T.);
#30=FACE_BOUND('',#328,.T.);
#31=FACE_BOUND('',#329,.T.);
#32=FACE_BOUND('',#343,.T.);
#33=PLANE('',#954);
#34=PLANE('',#955);
#35=PLANE('',#956);
#36=PLANE('',#958);
#37=PLANE('',#965);
#38=PLANE('',#967);
#39=PLANE('',#968);
#40=PLANE('',#976);
#41=PLANE('',#977);
#42=PLANE('',#981);
#43=PLANE('',#986);
#44=PLANE('',#990);
#45=PLANE('',#991);
#46=PLANE('',#994);
#47=PLANE('',#997);
#48=PLANE('',#1000);
#49=PLANE('',#1003);
#50=PLANE('',#1006);
#51=PLANE('',#1009);
#52=PLANE('',#1012);
#53=PLANE('',#1015);
#54=PLANE('',#1018);
#55=PLANE('',#1025);
#56=PLANE('',#1030);
#57=PLANE('',#1035);
#58=PLANE('',#1040);
#59=PLANE('',#1048);
#60=PLANE('',#1052);
#61=PLANE('',#1056);
#62=PLANE('',#1060);
#63=PLANE('',#1061);
#64=PLANE('',#1062);
#65=LINE('',#1391,#121);
#66=LINE('',#1392,#122);
#67=LINE('',#1395,#123);
#68=LINE('',#1398,#124);
#69=LINE('',#1401,#125);
#70=LINE('',#1403,#126);
#71=LINE('',#1405,#127);
#72=LINE('',#1411,#128);
#73=LINE('',#1414,#129);
#74=LINE('',#1421,#130);
#75=LINE('',#1422,#131);
#76=LINE('',#1425,#132);
#77=LINE('',#1452,#133);
#78=LINE('',#1453,#134);
#79=LINE('',#1456,#135);
#80=LINE('',#1459,#136);
#81=LINE('',#1461,#137);
#82=LINE('',#1464,#138);
#83=LINE('',#1468,#139);
#84=LINE('',#1471,#140);
#85=LINE('',#1494,#141);
#86=LINE('',#1495,#142);
#87=LINE('',#1498,#143);
#88=LINE('',#1505,#144);
#89=LINE('',#1506,#145);
#90=LINE('',#1509,#146);
#91=LINE('',#1513,#147);
#92=LINE('',#1516,#148);
#93=LINE('',#1534,#149);
#94=LINE('',#1536,#150);
#95=LINE('',#1540,#151);
#96=LINE('',#1544,#152);
#97=LINE('',#1547,#153);
#98=LINE('',#1551,#154);
#99=LINE('',#1553,#155);
#100=LINE('',#1554,#156);
#101=LINE('',#1558,#157);
#102=LINE('',#1561,#158);
#103=LINE('',#1562,#159);
#104=LINE('',#1607,#160);
#105=LINE('',#1611,#161);
#106=LINE('',#1616,#162);
#107=LINE('',#1620,#163);
#108=LINE('',#1625,#164);
#109=LINE('',#1629,#165);
#110=LINE('',#1634,#166);
#111=LINE('',#1638,#167);
#112=LINE('',#1641,#168);
#113=LINE('',#1652,#169);
#114=LINE('',#1655,#170);
#115=LINE('',#1659,#171);
#116=LINE('',#1662,#172);
#117=LINE('',#1666,#173);
#118=LINE('',#1669,#174);
#119=LINE('',#1673,#175);
#120=LINE('',#1676,#176);
#121=VECTOR('',#1079,10.);
#122=VECTOR('',#1080,10.);
#123=VECTOR('',#1083,10.);
#124=VECTOR('',#1086,10.);
#125=VECTOR('',#1089,10.);
#126=VECTOR('',#1090,10.);
#127=VECTOR('',#1091,10.);
#128=VECTOR('',#1092,10.);
#129=VECTOR('',#1095,10.);
#130=VECTOR('',#1096,10.);
#131=VECTOR('',#1097,10.);
#132=VECTOR('',#1100,10.);
#133=VECTOR('',#1117,10.);
#134=VECTOR('',#1118,10.);
#135=VECTOR('',#1121,10.);
#136=VECTOR('',#1124,10.);
#137=VECTOR('',#1127,10.);
#138=VECTOR('',#1130,10.);
#139=VECTOR('',#1133,10.);
#140=VECTOR('',#1136,10.);
#141=VECTOR('',#1147,10.);
#142=VECTOR('',#1148,10.);
#143=VECTOR('',#1151,10.);
#144=VECTOR('',#1152,10.);
#145=VECTOR('',#1153,10.);
#146=VECTOR('',#1156,10.);
#147=VECTOR('',#1161,10.);
#148=VECTOR('',#1166,10.);
#149=VECTOR('',#1173,10.);
#150=VECTOR('',#1176,10.);
#151=VECTOR('',#1179,10.);
#152=VECTOR('',#1182,10.);
#153=VECTOR('',#1187,10.);
#154=VECTOR('',#1192,10.);
#155=VECTOR('',#1193,10.);
#156=VECTOR('',#1194,10.);
#157=VECTOR('',#1199,10.);
#158=VECTOR('',#1202,10.);
#159=VECTOR('',#1203,10.);
#160=VECTOR('',#1258,2.3);
#161=VECTOR('',#1263,4.);
#162=VECTOR('',#1270,2.3);
#163=VECTOR('',#1275,4.);
#164=VECTOR('',#1282,2.3);
#165=VECTOR('',#1287,4.);
#166=VECTOR('',#1294,2.30000000000001);
#167=VECTOR('',#1299,4.00000000000001);
#168=VECTOR('',#1304,10.);
#169=VECTOR('',#1315,2.29999999999999);
#170=VECTOR('',#1320,3.99999999999999);
#171=VECTOR('',#1325,2.29999999999999);
#172=VECTOR('',#1330,3.99999999999999);
#173=VECTOR('',#1335,2.3);
#174=VECTOR('',#1340,4.);
#175=VECTOR('',#1345,2.30000000000001);
#176=VECTOR('',#1350,4.);
#177=CYLINDRICAL_SURFACE('',#950,5.);
#178=CYLINDRICAL_SURFACE('',#952,2.5);
#179=CYLINDRICAL_SURFACE('',#963,5.);
#180=CYLINDRICAL_SURFACE('',#975,5.);
#181=CYLINDRICAL_SURFACE('',#979,2.5);
#182=CYLINDRICAL_SURFACE('',#984,5.);
#183=CYLINDRICAL_SURFACE('',#985,2.5);
#184=CYLINDRICAL_SURFACE('',#989,2.5);
#185=CYLINDRICAL_SURFACE('',#992,1.875);
#186=CYLINDRICAL_SURFACE('',#995,1.875);
#187=CYLINDRICAL_SURFACE('',#1021,2.3);
#188=CYLINDRICAL_SURFACE('',#1023,4.);
#189=CYLINDRICAL_SURFACE('',#1026,2.3);
#190=CYLINDRICAL_SURFACE('',#1028,4.);
#191=CYLINDRICAL_SURFACE('',#1031,2.3);
#192=CYLINDRICAL_SURFACE('',#1033,4.);
#193=CYLINDRICAL_SURFACE('',#1036,2.30000000000001);
#194=CYLINDRICAL_SURFACE('',#1038,4.00000000000001);
#195=CYLINDRICAL_SURFACE('',#1045,2.29999999999999);
#196=CYLINDRICAL_SURFACE('',#1047,3.99999999999999);
#197=CYLINDRICAL_SURFACE('',#1049,2.29999999999999);
#198=CYLINDRICAL_SURFACE('',#1051,3.99999999999999);
#199=CYLINDRICAL_SURFACE('',#1053,2.3);
#200=CYLINDRICAL_SURFACE('',#1055,4.);
#201=CYLINDRICAL_SURFACE('',#1057,2.30000000000001);
#202=CYLINDRICAL_SURFACE('',#1059,4.);
#203=FACE_OUTER_BOUND('',#265,.T.);
#204=FACE_OUTER_BOUND('',#266,.T.);
#205=FACE_OUTER_BOUND('',#267,.T.);
#206=FACE_OUTER_BOUND('',#268,.T.);
#207=FACE_OUTER_BOUND('',#269,.T.);
#208=FACE_OUTER_BOUND('',#270,.T.);
#209=FACE_OUTER_BOUND('',#271,.T.);
#210=FACE_OUTER_BOUND('',#272,.T.);
#211=FACE_OUTER_BOUND('',#273,.T.);
#212=FACE_OUTER_BOUND('',#274,.T.);
#213=FACE_OUTER_BOUND('',#275,.T.);
#214=FACE_OUTER_BOUND('',#276,.T.);
#215=FACE_OUTER_BOUND('',#277,.T.);
#216=FACE_OUTER_BOUND('',#278,.T.);
#217=FACE_OUTER_BOUND('',#279,.T.);
#218=FACE_OUTER_BOUND('',#280,.T.);
#219=FACE_OUTER_BOUND('',#281,.T.);
#220=FACE_OUTER_BOUND('',#282,.T.);
#221=FACE_OUTER_BOUND('',#283,.T.);
#222=FACE_OUTER_BOUND('',#284,.T.);
#223=FACE_OUTER_BOUND('',#285,.T.);
#224=FACE_OUTER_BOUND('',#286,.T.);
#225=FACE_OUTER_BOUND('',#288,.T.);
#226=FACE_OUTER_BOUND('',#289,.T.);
#227=FACE_OUTER_BOUND('',#290,.T.);
#228=FACE_OUTER_BOUND('',#291,.T.);
#229=FACE_OUTER_BOUND('',#292,.T.);
#230=FACE_OUTER_BOUND('',#293,.T.);
#231=FACE_OUTER_BOUND('',#294,.T.);
#232=FACE_OUTER_BOUND('',#296,.T.);
#233=FACE_OUTER_BOUND('',#298,.T.);
#234=FACE_OUTER_BOUND('',#300,.T.);
#235=FACE_OUTER_BOUND('',#302,.T.);
#236=FACE_OUTER_BOUND('',#304,.T.);
#237=FACE_OUTER_BOUND('',#306,.T.);
#238=FACE_OUTER_BOUND('',#308,.T.);
#239=FACE_OUTER_BOUND('',#310,.T.);
#240=FACE_OUTER_BOUND('',#311,.T.);
#241=FACE_OUTER_BOUND('',#312,.T.);
#242=FACE_OUTER_BOUND('',#313,.T.);
#243=FACE_OUTER_BOUND('',#314,.T.);
#244=FACE_OUTER_BOUND('',#315,.T.);
#245=FACE_OUTER_BOUND('',#316,.T.);
#246=FACE_OUTER_BOUND('',#317,.T.);
#247=FACE_OUTER_BOUND('',#318,.T.);
#248=FACE_OUTER_BOUND('',#319,.T.);
#249=FACE_OUTER_BOUND('',#320,.T.);
#250=FACE_OUTER_BOUND('',#321,.T.);
#251=FACE_OUTER_BOUND('',#330,.T.);
#252=FACE_OUTER_BOUND('',#331,.T.);
#253=FACE_OUTER_BOUND('',#332,.T.);
#254=FACE_OUTER_BOUND('',#333,.T.);
#255=FACE_OUTER_BOUND('',#334,.T.);
#256=FACE_OUTER_BOUND('',#335,.T.);
#257=FACE_OUTER_BOUND('',#336,.T.);
#258=FACE_OUTER_BOUND('',#337,.T.);
#259=FACE_OUTER_BOUND('',#338,.T.);
#260=FACE_OUTER_BOUND('',#339,.T.);
#261=FACE_OUTER_BOUND('',#340,.T.);
#262=FACE_OUTER_BOUND('',#341,.T.);
#263=FACE_OUTER_BOUND('',#342,.T.);
#264=FACE_OUTER_BOUND('',#344,.T.);
#265=EDGE_LOOP('',(#617,#618,#619,#620,#621,#622,#623));
#266=EDGE_LOOP('',(#624,#625,#626,#627));
#267=EDGE_LOOP('',(#628,#629,#630,#631));
#268=EDGE_LOOP('',(#632,#633,#634,#635,#636,#637));
#269=EDGE_LOOP('',(#638,#639,#640,#641,#642,#643));
#270=EDGE_LOOP('',(#644,#645,#646,#647));
#271=EDGE_LOOP('',(#648,#649,#650,#651));
#272=EDGE_LOOP('',(#652,#653,#654,#655,#656,#657,#658));
#273=EDGE_LOOP('',(#659,#660,#661,#662));
#274=EDGE_LOOP('',(#663,#664,#665,#666));
#275=EDGE_LOOP('',(#667,#668,#669,#670));
#276=EDGE_LOOP('',(#671,#672,#673,#674,#675,#676,#677,#678));
#277=EDGE_LOOP('',(#679,#680,#681,#682,#683,#684,#685));
#278=EDGE_LOOP('',(#686,#687,#688,#689));
#279=EDGE_LOOP('',(#690,#691,#692,#693,#694,#695));
#280=EDGE_LOOP('',(#696,#697,#698,#699));
#281=EDGE_LOOP('',(#700,#701,#702,#703));
#282=EDGE_LOOP('',(#704,#705,#706,#707));
#283=EDGE_LOOP('',(#708,#709,#710,#711,#712,#713,#714));
#284=EDGE_LOOP('',(#715,#716,#717,#718));
#285=EDGE_LOOP('',(#719,#720,#721,#722));
#286=EDGE_LOOP('',(#723,#724,#725,#726));
#287=EDGE_LOOP('',(#727,#728,#729,#730));
#288=EDGE_LOOP('',(#731,#732,#733,#734));
#289=EDGE_LOOP('',(#735,#736,#737,#738));
#290=EDGE_LOOP('',(#739,#740,#741,#742));
#291=EDGE_LOOP('',(#743,#744,#745,#746));
#292=EDGE_LOOP('',(#747,#748,#749,#750));
#293=EDGE_LOOP('',(#751,#752,#753,#754));
#294=EDGE_LOOP('',(#755));
#295=EDGE_LOOP('',(#756));
#296=EDGE_LOOP('',(#757));
#297=EDGE_LOOP('',(#758));
#298=EDGE_LOOP('',(#759));
#299=EDGE_LOOP('',(#760));
#300=EDGE_LOOP('',(#761));
#301=EDGE_LOOP('',(#762));
#302=EDGE_LOOP('',(#763));
#303=EDGE_LOOP('',(#764));
#304=EDGE_LOOP('',(#765));
#305=EDGE_LOOP('',(#766));
#306=EDGE_LOOP('',(#767));
#307=EDGE_LOOP('',(#768));
#308=EDGE_LOOP('',(#769));
#309=EDGE_LOOP('',(#770));
#310=EDGE_LOOP('',(#771,#772,#773,#774));
#311=EDGE_LOOP('',(#775,#776,#777,#778));
#312=EDGE_LOOP('',(#779));
#313=EDGE_LOOP('',(#780,#781,#782,#783));
#314=EDGE_LOOP('',(#784,#785,#786,#787));
#315=EDGE_LOOP('',(#788));
#316=EDGE_LOOP('',(#789,#790,#791,#792));
#317=EDGE_LOOP('',(#793,#794,#795,#796));
#318=EDGE_LOOP('',(#797));
#319=EDGE_LOOP('',(#798,#799,#800,#801));
#320=EDGE_LOOP('',(#802,#803,#804,#805));
#321=EDGE_LOOP('',(#806,#807,#808,#809));
#322=EDGE_LOOP('',(#810));
#323=EDGE_LOOP('',(#811));
#324=EDGE_LOOP('',(#812));
#325=EDGE_LOOP('',(#813));
#326=EDGE_LOOP('',(#814));
#327=EDGE_LOOP('',(#815));
#328=EDGE_LOOP('',(#816));
#329=EDGE_LOOP('',(#817));
#330=EDGE_LOOP('',(#818,#819,#820,#821));
#331=EDGE_LOOP('',(#822,#823,#824,#825));
#332=EDGE_LOOP('',(#826));
#333=EDGE_LOOP('',(#827,#828,#829,#830));
#334=EDGE_LOOP('',(#831,#832,#833,#834));
#335=EDGE_LOOP('',(#835));
#336=EDGE_LOOP('',(#836,#837,#838,#839));
#337=EDGE_LOOP('',(#840,#841,#842,#843));
#338=EDGE_LOOP('',(#844));
#339=EDGE_LOOP('',(#845,#846,#847,#848));
#340=EDGE_LOOP('',(#849,#850,#851,#852));
#341=EDGE_LOOP('',(#853));
#342=EDGE_LOOP('',(#854,#855,#856,#857,#858,#859));
#343=EDGE_LOOP('',(#860,#861,#862,#863));
#344=EDGE_LOOP('',(#864));
#345=CIRCLE('',#945,2.5);
#346=CIRCLE('',#946,2.49999999999987);
#347=CIRCLE('',#947,5.);
#348=CIRCLE('',#948,2.5);
#349=CIRCLE('',#949,2.5);
#350=CIRCLE('',#951,5.);
#351=CIRCLE('',#953,2.5);
#352=CIRCLE('',#957,2.5);
#353=CIRCLE('',#959,2.5);
#354=CIRCLE('',#960,2.5);
#355=CIRCLE('',#961,2.49999999999986);
#356=CIRCLE('',#962,5.);
#357=CIRCLE('',#964,5.);
#358=CIRCLE('',#966,2.5);
#359=CIRCLE('',#969,5.);
#360=CIRCLE('',#970,5.);
#361=CIRCLE('',#971,2.50000000000015);
#362=CIRCLE('',#972,5.);
#363=CIRCLE('',#973,2.50000000000004);
#364=CIRCLE('',#974,2.5);
#365=CIRCLE('',#978,2.5);
#366=CIRCLE('',#980,2.50000000000015);
#367=CIRCLE('',#982,5.);
#368=CIRCLE('',#983,2.5);
#369=CIRCLE('',#987,1.875);
#370=CIRCLE('',#988,1.875);
#371=CIRCLE('',#993,1.875);
#372=CIRCLE('',#996,1.875);
#373=CIRCLE('',#998,4.00000000000001);
#374=CIRCLE('',#999,2.30000000000001);
#375=CIRCLE('',#1001,3.99999999999999);
#376=CIRCLE('',#1002,2.29999999999999);
#377=CIRCLE('',#1004,3.99999999999999);
#378=CIRCLE('',#1005,2.29999999999999);
#379=CIRCLE('',#1007,4.);
#380=CIRCLE('',#1008,2.3);
#381=CIRCLE('',#1010,4.);
#382=CIRCLE('',#1011,2.3);
#383=CIRCLE('',#1013,4.);
#384=CIRCLE('',#1014,2.30000000000001);
#385=CIRCLE('',#1016,4.);
#386=CIRCLE('',#1017,2.3);
#387=CIRCLE('',#1019,4.);
#388=CIRCLE('',#1020,2.3);
#389=CIRCLE('',#1022,2.3);
#390=CIRCLE('',#1024,4.);
#391=CIRCLE('',#1027,2.3);
#392=CIRCLE('',#1029,4.);
#393=CIRCLE('',#1032,2.3);
#394=CIRCLE('',#1034,4.);
#395=CIRCLE('',#1037,2.30000000000001);
#396=CIRCLE('',#1039,4.00000000000001);
#397=CIRCLE('',#1041,3.99999999999999);
#398=CIRCLE('',#1042,4.);
#399=CIRCLE('',#1043,4.);
#400=CIRCLE('',#1044,3.99999999999999);
#401=CIRCLE('',#1046,2.29999999999999);
#402=CIRCLE('',#1050,2.29999999999999);
#403=CIRCLE('',#1054,2.3);
#404=CIRCLE('',#1058,2.30000000000001);
#405=B_SPLINE_CURVE_WITH_KNOTS('',3,(#1369,#1370,#1371,#1372),
 .UNSPECIFIED.,.F.,.F.,(4,4),(0.931467008166752,0.979137304769103),
 .UNSPECIFIED.);
#406=B_SPLINE_CURVE_WITH_KNOTS('',3,(#1383,#1384,#1385,#1386),
 .UNSPECIFIED.,.F.,.F.,(4,4),(1.26060594260227,1.3081975384683),
 .UNSPECIFIED.);
#407=B_SPLINE_CURVE_WITH_KNOTS('',3,(#1407,#1408,#1409,#1410),
 .UNSPECIFIED.,.F.,.F.,(4,4),(0.140745297765683,0.188415594368036),
 .UNSPECIFIED.);
#408=B_SPLINE_CURVE_WITH_KNOTS('',3,(#1416,#1417,#1418,#1419),
 .UNSPECIFIED.,.F.,.F.,(4,4),(-0.188415594367377,-0.140745297765697),
 .UNSPECIFIED.);
#409=B_SPLINE_CURVE_WITH_KNOTS('',3,(#1439,#1440,#1441,#1442),
 .UNSPECIFIED.,.F.,.F.,(4,4),(-0.188415594367383,-0.140745297765689),
 .UNSPECIFIED.);
#410=B_SPLINE_CURVE_WITH_KNOTS('',3,(#1482,#1483,#1484,#1485),
 .UNSPECIFIED.,.F.,.F.,(4,4),(0.140745297765688,0.18833689363171),
 .UNSPECIFIED.);
#411=B_SPLINE_CURVE_WITH_KNOTS('',3,(#1500,#1501,#1502,#1503),
 .UNSPECIFIED.,.F.,.F.,(4,4),(-0.188415594367378,-0.140745297765688),
 .UNSPECIFIED.);
#412=B_SPLINE_CURVE_WITH_KNOTS('',3,(#1526,#1527,#1528,#1529),
 .UNSPECIFIED.,.F.,.F.,(4,4),(0.140745297765691,0.188336893631722),
 .UNSPECIFIED.);
#413=VERTEX_POINT('',#1367);
#414=VERTEX_POINT('',#1368);
#415=VERTEX_POINT('',#1373);
#416=VERTEX_POINT('',#1375);
#417=VERTEX_POINT('',#1377);
#418=VERTEX_POINT('',#1379);
#419=VERTEX_POINT('',#1381);
#420=VERTEX_POINT('',#1388);
#421=VERTEX_POINT('',#1389);
#422=VERTEX_POINT('',#1394);
#423=VERTEX_POINT('',#1396);
#424=VERTEX_POINT('',#1400);
#425=VERTEX_POINT('',#1402);
#426=VERTEX_POINT('',#1404);
#427=VERTEX_POINT('',#1406);
#428=VERTEX_POINT('',#1413);
#429=VERTEX_POINT('',#1415);
#430=VERTEX_POINT('',#1420);
#431=VERTEX_POINT('',#1424);
#432=VERTEX_POINT('',#1438);
#433=VERTEX_POINT('',#1443);
#434=VERTEX_POINT('',#1445);
#435=VERTEX_POINT('',#1449);
#436=VERTEX_POINT('',#1450);
#437=VERTEX_POINT('',#1455);
#438=VERTEX_POINT('',#1457);
#439=VERTEX_POINT('',#1463);
#440=VERTEX_POINT('',#1465);
#441=VERTEX_POINT('',#1467);
#442=VERTEX_POINT('',#1469);
#443=VERTEX_POINT('',#1481);
#444=VERTEX_POINT('',#1486);
#445=VERTEX_POINT('',#1488);
#446=VERTEX_POINT('',#1490);
#447=VERTEX_POINT('',#1497);
#448=VERTEX_POINT('',#1499);
#449=VERTEX_POINT('',#1504);
#450=VERTEX_POINT('',#1508);
#451=VERTEX_POINT('',#1512);
#452=VERTEX_POINT('',#1530);
#453=VERTEX_POINT('',#1538);
#454=VERTEX_POINT('',#1539);
#455=VERTEX_POINT('',#1541);
#456=VERTEX_POINT('',#1543);
#457=VERTEX_POINT('',#1550);
#458=VERTEX_POINT('',#1552);
#459=VERTEX_POINT('',#1556);
#460=VERTEX_POINT('',#1560);
#461=VERTEX_POINT('',#1566);
#462=VERTEX_POINT('',#1568);
#463=VERTEX_POINT('',#1571);
#464=VERTEX_POINT('',#1573);
#465=VERTEX_POINT('',#1576);
#466=VERTEX_POINT('',#1578);
#467=VERTEX_POINT('',#1581);
#468=VERTEX_POINT('',#1583);
#469=VERTEX_POINT('',#1586);
#470=VERTEX_POINT('',#1588);
#471=VERTEX_POINT('',#1591);
#472=VERTEX_POINT('',#1593);
#473=VERTEX_POINT('',#1596);
#474=VERTEX_POINT('',#1598);
#475=VERTEX_POINT('',#1601);
#476=VERTEX_POINT('',#1603);
#477=VERTEX_POINT('',#1606);
#478=VERTEX_POINT('',#1610);
#479=VERTEX_POINT('',#1615);
#480=VERTEX_POINT('',#1619);
#481=VERTEX_POINT('',#1624);
#482=VERTEX_POINT('',#1628);
#483=VERTEX_POINT('',#1633);
#484=VERTEX_POINT('',#1637);
#485=VERTEX_POINT('',#1642);
#486=VERTEX_POINT('',#1644);
#487=VERTEX_POINT('',#1646);
#488=VERTEX_POINT('',#1648);
#489=VERTEX_POINT('',#1651);
#490=VERTEX_POINT('',#1658);
#491=VERTEX_POINT('',#1665);
#492=VERTEX_POINT('',#1672);
#493=EDGE_CURVE('',#413,#414,#405,.T.);
#494=EDGE_CURVE('',#414,#415,#345,.T.);
#495=EDGE_CURVE('',#415,#416,#346,.T.);
#496=EDGE_CURVE('',#416,#417,#347,.T.);
#497=EDGE_CURVE('',#417,#418,#348,.T.);
#498=EDGE_CURVE('',#418,#419,#349,.T.);
#499=EDGE_CURVE('',#419,#413,#406,.T.);
#500=EDGE_CURVE('',#420,#421,#350,.T.);
#501=EDGE_CURVE('',#421,#417,#65,.T.);
#502=EDGE_CURVE('',#416,#420,#66,.T.);
#503=EDGE_CURVE('',#415,#422,#67,.T.);
#504=EDGE_CURVE('',#423,#422,#351,.T.);
#505=EDGE_CURVE('',#423,#416,#68,.T.);
#506=EDGE_CURVE('',#424,#413,#69,.T.);
#507=EDGE_CURVE('',#425,#424,#70,.T.);
#508=EDGE_CURVE('',#425,#426,#71,.T.);
#509=EDGE_CURVE('',#427,#426,#407,.T.);
#510=EDGE_CURVE('',#414,#427,#72,.T.);
#511=EDGE_CURVE('',#428,#419,#73,.T.);
#512=EDGE_CURVE('',#429,#428,#408,.T.);
#513=EDGE_CURVE('',#430,#429,#74,.T.);
#514=EDGE_CURVE('',#424,#430,#75,.T.);
#515=EDGE_CURVE('',#431,#418,#76,.T.);
#516=EDGE_CURVE('',#428,#431,#352,.T.);
#517=EDGE_CURVE('',#422,#427,#353,.T.);
#518=EDGE_CURVE('',#426,#432,#409,.T.);
#519=EDGE_CURVE('',#432,#433,#354,.T.);
#520=EDGE_CURVE('',#433,#434,#355,.T.);
#521=EDGE_CURVE('',#434,#423,#356,.T.);
#522=EDGE_CURVE('',#435,#436,#357,.T.);
#523=EDGE_CURVE('',#436,#423,#77,.T.);
#524=EDGE_CURVE('',#434,#435,#78,.T.);
#525=EDGE_CURVE('',#432,#437,#79,.T.);
#526=EDGE_CURVE('',#438,#437,#358,.T.);
#527=EDGE_CURVE('',#433,#438,#80,.T.);
#528=EDGE_CURVE('',#420,#436,#81,.T.);
#529=EDGE_CURVE('',#435,#439,#82,.T.);
#530=EDGE_CURVE('',#440,#439,#359,.T.);
#531=EDGE_CURVE('',#440,#441,#83,.T.);
#532=EDGE_CURVE('',#442,#441,#360,.T.);
#533=EDGE_CURVE('',#442,#421,#84,.T.);
#534=EDGE_CURVE('',#443,#429,#410,.T.);
#535=EDGE_CURVE('',#431,#444,#361,.T.);
#536=EDGE_CURVE('',#444,#445,#362,.T.);
#537=EDGE_CURVE('',#445,#446,#363,.T.);
#538=EDGE_CURVE('',#446,#443,#364,.T.);
#539=EDGE_CURVE('',#441,#445,#85,.T.);
#540=EDGE_CURVE('',#444,#442,#86,.T.);
#541=EDGE_CURVE('',#447,#443,#87,.T.);
#542=EDGE_CURVE('',#448,#447,#411,.T.);
#543=EDGE_CURVE('',#449,#448,#88,.T.);
#544=EDGE_CURVE('',#430,#449,#89,.T.);
#545=EDGE_CURVE('',#450,#446,#90,.T.);
#546=EDGE_CURVE('',#447,#450,#365,.T.);
#547=EDGE_CURVE('',#445,#451,#91,.T.);
#548=EDGE_CURVE('',#450,#451,#366,.T.);
#549=EDGE_CURVE('',#451,#440,#92,.T.);
#550=EDGE_CURVE('',#437,#448,#412,.T.);
#551=EDGE_CURVE('',#451,#452,#367,.T.);
#552=EDGE_CURVE('',#452,#438,#368,.T.);
#553=EDGE_CURVE('',#439,#452,#93,.T.);
#554=EDGE_CURVE('',#452,#434,#94,.T.);
#555=EDGE_CURVE('',#453,#454,#95,.T.);
#556=EDGE_CURVE('',#454,#455,#369,.T.);
#557=EDGE_CURVE('',#455,#456,#96,.T.);
#558=EDGE_CURVE('',#456,#453,#370,.T.);
#559=EDGE_CURVE('',#417,#444,#97,.T.);
#560=EDGE_CURVE('',#457,#455,#98,.T.);
#561=EDGE_CURVE('',#458,#457,#99,.T.);
#562=EDGE_CURVE('',#458,#456,#100,.T.);
#563=EDGE_CURVE('',#459,#458,#371,.T.);
#564=EDGE_CURVE('',#459,#453,#101,.T.);
#565=EDGE_CURVE('',#460,#459,#102,.T.);
#566=EDGE_CURVE('',#460,#454,#103,.T.);
#567=EDGE_CURVE('',#457,#460,#372,.T.);
#568=EDGE_CURVE('',#461,#461,#373,.T.);
#569=EDGE_CURVE('',#462,#462,#374,.T.);
#570=EDGE_CURVE('',#463,#463,#375,.T.);
#571=EDGE_CURVE('',#464,#464,#376,.T.);
#572=EDGE_CURVE('',#465,#465,#377,.T.);
#573=EDGE_CURVE('',#466,#466,#378,.T.);
#574=EDGE_CURVE('',#467,#467,#379,.T.);
#575=EDGE_CURVE('',#468,#468,#380,.T.);
#576=EDGE_CURVE('',#469,#469,#381,.T.);
#577=EDGE_CURVE('',#470,#470,#382,.T.);
#578=EDGE_CURVE('',#471,#471,#383,.T.);
#579=EDGE_CURVE('',#472,#472,#384,.T.);
#580=EDGE_CURVE('',#473,#473,#385,.T.);
#581=EDGE_CURVE('',#474,#474,#386,.T.);
#582=EDGE_CURVE('',#475,#475,#387,.T.);
#583=EDGE_CURVE('',#476,#476,#388,.T.);
#584=EDGE_CURVE('',#468,#477,#104,.T.);
#585=EDGE_CURVE('',#477,#477,#389,.T.);
#586=EDGE_CURVE('',#467,#478,#105,.T.);
#587=EDGE_CURVE('',#478,#478,#390,.T.);
#588=EDGE_CURVE('',#474,#479,#106,.T.);
#589=EDGE_CURVE('',#479,#479,#391,.T.);
#590=EDGE_CURVE('',#473,#480,#107,.T.);
#591=EDGE_CURVE('',#480,#480,#392,.T.);
#592=EDGE_CURVE('',#476,#481,#108,.T.);
#593=EDGE_CURVE('',#481,#481,#393,.T.);
#594=EDGE_CURVE('',#475,#482,#109,.T.);
#595=EDGE_CURVE('',#482,#482,#394,.T.);
#596=EDGE_CURVE('',#462,#483,#110,.T.);
#597=EDGE_CURVE('',#483,#483,#395,.T.);
#598=EDGE_CURVE('',#461,#484,#111,.T.);
#599=EDGE_CURVE('',#484,#484,#396,.T.);
#600=EDGE_CURVE('',#449,#425,#112,.T.);
#601=EDGE_CURVE('',#485,#485,#397,.T.);
#602=EDGE_CURVE('',#486,#486,#398,.T.);
#603=EDGE_CURVE('',#487,#487,#399,.T.);
#604=EDGE_CURVE('',#488,#488,#400,.T.);
#605=EDGE_CURVE('',#466,#489,#113,.T.);
#606=EDGE_CURVE('',#489,#489,#401,.T.);
#607=EDGE_CURVE('',#465,#488,#114,.T.);
#608=EDGE_CURVE('',#464,#490,#115,.T.);
#609=EDGE_CURVE('',#490,#490,#402,.T.);
#610=EDGE_CURVE('',#463,#485,#116,.T.);
#611=EDGE_CURVE('',#470,#491,#117,.T.);
#612=EDGE_CURVE('',#491,#491,#403,.T.);
#613=EDGE_CURVE('',#469,#487,#118,.T.);
#614=EDGE_CURVE('',#472,#492,#119,.T.);
#615=EDGE_CURVE('',#492,#492,#404,.T.);
#616=EDGE_CURVE('',#471,#486,#120,.T.);
#617=ORIENTED_EDGE('',*,*,#493,.T.);
#618=ORIENTED_EDGE('',*,*,#494,.T.);
#619=ORIENTED_EDGE('',*,*,#495,.T.);
#620=ORIENTED_EDGE('',*,*,#496,.T.);
#621=ORIENTED_EDGE('',*,*,#497,.T.);
#622=ORIENTED_EDGE('',*,*,#498,.T.);
#623=ORIENTED_EDGE('',*,*,#499,.T.);
#624=ORIENTED_EDGE('',*,*,#500,.T.);
#625=ORIENTED_EDGE('',*,*,#501,.T.);
#626=ORIENTED_EDGE('',*,*,#496,.F.);
#627=ORIENTED_EDGE('',*,*,#502,.T.);
#628=ORIENTED_EDGE('',*,*,#495,.F.);
#629=ORIENTED_EDGE('',*,*,#503,.T.);
#630=ORIENTED_EDGE('',*,*,#504,.F.);
#631=ORIENTED_EDGE('',*,*,#505,.T.);
#632=ORIENTED_EDGE('',*,*,#493,.F.);
#633=ORIENTED_EDGE('',*,*,#506,.F.);
#634=ORIENTED_EDGE('',*,*,#507,.F.);
#635=ORIENTED_EDGE('',*,*,#508,.T.);
#636=ORIENTED_EDGE('',*,*,#509,.F.);
#637=ORIENTED_EDGE('',*,*,#510,.F.);
#638=ORIENTED_EDGE('',*,*,#499,.F.);
#639=ORIENTED_EDGE('',*,*,#511,.F.);
#640=ORIENTED_EDGE('',*,*,#512,.F.);
#641=ORIENTED_EDGE('',*,*,#513,.F.);
#642=ORIENTED_EDGE('',*,*,#514,.F.);
#643=ORIENTED_EDGE('',*,*,#506,.T.);
#644=ORIENTED_EDGE('',*,*,#498,.F.);
#645=ORIENTED_EDGE('',*,*,#515,.F.);
#646=ORIENTED_EDGE('',*,*,#516,.F.);
#647=ORIENTED_EDGE('',*,*,#511,.T.);
#648=ORIENTED_EDGE('',*,*,#494,.F.);
#649=ORIENTED_EDGE('',*,*,#510,.T.);
#650=ORIENTED_EDGE('',*,*,#517,.F.);
#651=ORIENTED_EDGE('',*,*,#503,.F.);
#652=ORIENTED_EDGE('',*,*,#509,.T.);
#653=ORIENTED_EDGE('',*,*,#518,.T.);
#654=ORIENTED_EDGE('',*,*,#519,.T.);
#655=ORIENTED_EDGE('',*,*,#520,.T.);
#656=ORIENTED_EDGE('',*,*,#521,.T.);
#657=ORIENTED_EDGE('',*,*,#504,.T.);
#658=ORIENTED_EDGE('',*,*,#517,.T.);
#659=ORIENTED_EDGE('',*,*,#522,.T.);
#660=ORIENTED_EDGE('',*,*,#523,.T.);
#661=ORIENTED_EDGE('',*,*,#521,.F.);
#662=ORIENTED_EDGE('',*,*,#524,.T.);
#663=ORIENTED_EDGE('',*,*,#519,.F.);
#664=ORIENTED_EDGE('',*,*,#525,.T.);
#665=ORIENTED_EDGE('',*,*,#526,.F.);
#666=ORIENTED_EDGE('',*,*,#527,.F.);
#667=ORIENTED_EDGE('',*,*,#502,.F.);
#668=ORIENTED_EDGE('',*,*,#505,.F.);
#669=ORIENTED_EDGE('',*,*,#523,.F.);
#670=ORIENTED_EDGE('',*,*,#528,.F.);
#671=ORIENTED_EDGE('',*,*,#500,.F.);
#672=ORIENTED_EDGE('',*,*,#528,.T.);
#673=ORIENTED_EDGE('',*,*,#522,.F.);
#674=ORIENTED_EDGE('',*,*,#529,.T.);
#675=ORIENTED_EDGE('',*,*,#530,.F.);
#676=ORIENTED_EDGE('',*,*,#531,.T.);
#677=ORIENTED_EDGE('',*,*,#532,.F.);
#678=ORIENTED_EDGE('',*,*,#533,.T.);
#679=ORIENTED_EDGE('',*,*,#534,.T.);
#680=ORIENTED_EDGE('',*,*,#512,.T.);
#681=ORIENTED_EDGE('',*,*,#516,.T.);
#682=ORIENTED_EDGE('',*,*,#535,.T.);
#683=ORIENTED_EDGE('',*,*,#536,.T.);
#684=ORIENTED_EDGE('',*,*,#537,.T.);
#685=ORIENTED_EDGE('',*,*,#538,.T.);
#686=ORIENTED_EDGE('',*,*,#532,.T.);
#687=ORIENTED_EDGE('',*,*,#539,.T.);
#688=ORIENTED_EDGE('',*,*,#536,.F.);
#689=ORIENTED_EDGE('',*,*,#540,.T.);
#690=ORIENTED_EDGE('',*,*,#534,.F.);
#691=ORIENTED_EDGE('',*,*,#541,.F.);
#692=ORIENTED_EDGE('',*,*,#542,.F.);
#693=ORIENTED_EDGE('',*,*,#543,.F.);
#694=ORIENTED_EDGE('',*,*,#544,.F.);
#695=ORIENTED_EDGE('',*,*,#513,.T.);
#696=ORIENTED_EDGE('',*,*,#538,.F.);
#697=ORIENTED_EDGE('',*,*,#545,.F.);
#698=ORIENTED_EDGE('',*,*,#546,.F.);
#699=ORIENTED_EDGE('',*,*,#541,.T.);
#700=ORIENTED_EDGE('',*,*,#537,.F.);
#701=ORIENTED_EDGE('',*,*,#547,.T.);
#702=ORIENTED_EDGE('',*,*,#548,.F.);
#703=ORIENTED_EDGE('',*,*,#545,.T.);
#704=ORIENTED_EDGE('',*,*,#539,.F.);
#705=ORIENTED_EDGE('',*,*,#531,.F.);
#706=ORIENTED_EDGE('',*,*,#549,.F.);
#707=ORIENTED_EDGE('',*,*,#547,.F.);
#708=ORIENTED_EDGE('',*,*,#550,.T.);
#709=ORIENTED_EDGE('',*,*,#542,.T.);
#710=ORIENTED_EDGE('',*,*,#546,.T.);
#711=ORIENTED_EDGE('',*,*,#548,.T.);
#712=ORIENTED_EDGE('',*,*,#551,.T.);
#713=ORIENTED_EDGE('',*,*,#552,.T.);
#714=ORIENTED_EDGE('',*,*,#526,.T.);
#715=ORIENTED_EDGE('',*,*,#530,.T.);
#716=ORIENTED_EDGE('',*,*,#553,.T.);
#717=ORIENTED_EDGE('',*,*,#551,.F.);
#718=ORIENTED_EDGE('',*,*,#549,.T.);
#719=ORIENTED_EDGE('',*,*,#520,.F.);
#720=ORIENTED_EDGE('',*,*,#527,.T.);
#721=ORIENTED_EDGE('',*,*,#552,.F.);
#722=ORIENTED_EDGE('',*,*,#554,.T.);
#723=ORIENTED_EDGE('',*,*,#524,.F.);
#724=ORIENTED_EDGE('',*,*,#554,.F.);
#725=ORIENTED_EDGE('',*,*,#553,.F.);
#726=ORIENTED_EDGE('',*,*,#529,.F.);
#727=ORIENTED_EDGE('',*,*,#555,.T.);
#728=ORIENTED_EDGE('',*,*,#556,.T.);
#729=ORIENTED_EDGE('',*,*,#557,.T.);
#730=ORIENTED_EDGE('',*,*,#558,.T.);
#731=ORIENTED_EDGE('',*,*,#497,.F.);
#732=ORIENTED_EDGE('',*,*,#559,.T.);
#733=ORIENTED_EDGE('',*,*,#535,.F.);
#734=ORIENTED_EDGE('',*,*,#515,.T.);
#735=ORIENTED_EDGE('',*,*,#501,.F.);
#736=ORIENTED_EDGE('',*,*,#533,.F.);
#737=ORIENTED_EDGE('',*,*,#540,.F.);
#738=ORIENTED_EDGE('',*,*,#559,.F.);
#739=ORIENTED_EDGE('',*,*,#557,.F.);
#740=ORIENTED_EDGE('',*,*,#560,.F.);
#741=ORIENTED_EDGE('',*,*,#561,.F.);
#742=ORIENTED_EDGE('',*,*,#562,.T.);
#743=ORIENTED_EDGE('',*,*,#558,.F.);
#744=ORIENTED_EDGE('',*,*,#562,.F.);
#745=ORIENTED_EDGE('',*,*,#563,.F.);
#746=ORIENTED_EDGE('',*,*,#564,.T.);
#747=ORIENTED_EDGE('',*,*,#555,.F.);
#748=ORIENTED_EDGE('',*,*,#564,.F.);
#749=ORIENTED_EDGE('',*,*,#565,.F.);
#750=ORIENTED_EDGE('',*,*,#566,.T.);
#751=ORIENTED_EDGE('',*,*,#556,.F.);
#752=ORIENTED_EDGE('',*,*,#566,.F.);
#753=ORIENTED_EDGE('',*,*,#567,.F.);
#754=ORIENTED_EDGE('',*,*,#560,.T.);
#755=ORIENTED_EDGE('',*,*,#568,.F.);
#756=ORIENTED_EDGE('',*,*,#569,.F.);
#757=ORIENTED_EDGE('',*,*,#570,.F.);
#758=ORIENTED_EDGE('',*,*,#571,.F.);
#759=ORIENTED_EDGE('',*,*,#572,.F.);
#760=ORIENTED_EDGE('',*,*,#573,.F.);
#761=ORIENTED_EDGE('',*,*,#574,.F.);
#762=ORIENTED_EDGE('',*,*,#575,.F.);
#763=ORIENTED_EDGE('',*,*,#576,.F.);
#764=ORIENTED_EDGE('',*,*,#577,.F.);
#765=ORIENTED_EDGE('',*,*,#578,.F.);
#766=ORIENTED_EDGE('',*,*,#579,.F.);
#767=ORIENTED_EDGE('',*,*,#580,.F.);
#768=ORIENTED_EDGE('',*,*,#581,.F.);
#769=ORIENTED_EDGE('',*,*,#582,.F.);
#770=ORIENTED_EDGE('',*,*,#583,.F.);
#771=ORIENTED_EDGE('',*,*,#575,.T.);
#772=ORIENTED_EDGE('',*,*,#584,.T.);
#773=ORIENTED_EDGE('',*,*,#585,.F.);
#774=ORIENTED_EDGE('',*,*,#584,.F.);
#775=ORIENTED_EDGE('',*,*,#574,.T.);
#776=ORIENTED_EDGE('',*,*,#586,.T.);
#777=ORIENTED_EDGE('',*,*,#587,.F.);
#778=ORIENTED_EDGE('',*,*,#586,.F.);
#779=ORIENTED_EDGE('',*,*,#585,.T.);
#780=ORIENTED_EDGE('',*,*,#581,.T.);
#781=ORIENTED_EDGE('',*,*,#588,.T.);
#782=ORIENTED_EDGE('',*,*,#589,.F.);
#783=ORIENTED_EDGE('',*,*,#588,.F.);
#784=ORIENTED_EDGE('',*,*,#580,.T.);
#785=ORIENTED_EDGE('',*,*,#590,.T.);
#786=ORIENTED_EDGE('',*,*,#591,.F.);
#787=ORIENTED_EDGE('',*,*,#590,.F.);
#788=ORIENTED_EDGE('',*,*,#589,.T.);
#789=ORIENTED_EDGE('',*,*,#583,.T.);
#790=ORIENTED_EDGE('',*,*,#592,.T.);
#791=ORIENTED_EDGE('',*,*,#593,.F.);
#792=ORIENTED_EDGE('',*,*,#592,.F.);
#793=ORIENTED_EDGE('',*,*,#582,.T.);
#794=ORIENTED_EDGE('',*,*,#594,.T.);
#795=ORIENTED_EDGE('',*,*,#595,.F.);
#796=ORIENTED_EDGE('',*,*,#594,.F.);
#797=ORIENTED_EDGE('',*,*,#593,.T.);
#798=ORIENTED_EDGE('',*,*,#569,.T.);
#799=ORIENTED_EDGE('',*,*,#596,.T.);
#800=ORIENTED_EDGE('',*,*,#597,.F.);
#801=ORIENTED_EDGE('',*,*,#596,.F.);
#802=ORIENTED_EDGE('',*,*,#568,.T.);
#803=ORIENTED_EDGE('',*,*,#598,.T.);
#804=ORIENTED_EDGE('',*,*,#599,.F.);
#805=ORIENTED_EDGE('',*,*,#598,.F.);
#806=ORIENTED_EDGE('',*,*,#544,.T.);
#807=ORIENTED_EDGE('',*,*,#600,.T.);
#808=ORIENTED_EDGE('',*,*,#507,.T.);
#809=ORIENTED_EDGE('',*,*,#514,.T.);
#810=ORIENTED_EDGE('',*,*,#591,.T.);
#811=ORIENTED_EDGE('',*,*,#599,.T.);
#812=ORIENTED_EDGE('',*,*,#601,.T.);
#813=ORIENTED_EDGE('',*,*,#602,.T.);
#814=ORIENTED_EDGE('',*,*,#603,.T.);
#815=ORIENTED_EDGE('',*,*,#604,.T.);
#816=ORIENTED_EDGE('',*,*,#595,.T.);
#817=ORIENTED_EDGE('',*,*,#587,.T.);
#818=ORIENTED_EDGE('',*,*,#573,.T.);
#819=ORIENTED_EDGE('',*,*,#605,.T.);
#820=ORIENTED_EDGE('',*,*,#606,.F.);
#821=ORIENTED_EDGE('',*,*,#605,.F.);
#822=ORIENTED_EDGE('',*,*,#572,.T.);
#823=ORIENTED_EDGE('',*,*,#607,.T.);
#824=ORIENTED_EDGE('',*,*,#604,.F.);
#825=ORIENTED_EDGE('',*,*,#607,.F.);
#826=ORIENTED_EDGE('',*,*,#597,.T.);
#827=ORIENTED_EDGE('',*,*,#571,.T.);
#828=ORIENTED_EDGE('',*,*,#608,.T.);
#829=ORIENTED_EDGE('',*,*,#609,.F.);
#830=ORIENTED_EDGE('',*,*,#608,.F.);
#831=ORIENTED_EDGE('',*,*,#570,.T.);
#832=ORIENTED_EDGE('',*,*,#610,.T.);
#833=ORIENTED_EDGE('',*,*,#601,.F.);
#834=ORIENTED_EDGE('',*,*,#610,.F.);
#835=ORIENTED_EDGE('',*,*,#606,.T.);
#836=ORIENTED_EDGE('',*,*,#577,.T.);
#837=ORIENTED_EDGE('',*,*,#611,.T.);
#838=ORIENTED_EDGE('',*,*,#612,.F.);
#839=ORIENTED_EDGE('',*,*,#611,.F.);
#840=ORIENTED_EDGE('',*,*,#576,.T.);
#841=ORIENTED_EDGE('',*,*,#613,.T.);
#842=ORIENTED_EDGE('',*,*,#603,.F.);
#843=ORIENTED_EDGE('',*,*,#613,.F.);
#844=ORIENTED_EDGE('',*,*,#609,.T.);
#845=ORIENTED_EDGE('',*,*,#579,.T.);
#846=ORIENTED_EDGE('',*,*,#614,.T.);
#847=ORIENTED_EDGE('',*,*,#615,.F.);
#848=ORIENTED_EDGE('',*,*,#614,.F.);
#849=ORIENTED_EDGE('',*,*,#578,.T.);
#850=ORIENTED_EDGE('',*,*,#616,.T.);
#851=ORIENTED_EDGE('',*,*,#602,.F.);
#852=ORIENTED_EDGE('',*,*,#616,.F.);
#853=ORIENTED_EDGE('',*,*,#612,.T.);
#854=ORIENTED_EDGE('',*,*,#518,.F.);
#855=ORIENTED_EDGE('',*,*,#508,.F.);
#856=ORIENTED_EDGE('',*,*,#600,.F.);
#857=ORIENTED_EDGE('',*,*,#543,.T.);
#858=ORIENTED_EDGE('',*,*,#550,.F.);
#859=ORIENTED_EDGE('',*,*,#525,.F.);
#860=ORIENTED_EDGE('',*,*,#565,.T.);
#861=ORIENTED_EDGE('',*,*,#563,.T.);
#862=ORIENTED_EDGE('',*,*,#561,.T.);
#863=ORIENTED_EDGE('',*,*,#567,.T.);
#864=ORIENTED_EDGE('',*,*,#615,.T.);
#865=(
BOUNDED_SURFACE()
B_SPLINE_SURFACE(2,2,((#1358,#1359,#1360),(#1361,#1362,#1363),(#1364,#1365,
#1366)),.UNSPECIFIED.,.F.,.F.,.F.)
B_SPLINE_SURFACE_WITH_KNOTS((3,3),(3,3),(-7.33267613295397E-15,1.57079632679491),
(-3.14159265358979,-1.5707963267949),.UNSPECIFIED.)
GEOMETRIC_REPRESENTATION_ITEM()
RATIONAL_B_SPLINE_SURFACE(((1.,0.707106781186548,1.),(0.707106781186546,
0.499999999999999,0.707106781186546),(1.,0.707106781186548,1.)))
REPRESENTATION_ITEM('')
SURFACE()
);
#866=(
BOUNDED_SURFACE()
B_SPLINE_SURFACE(2,2,((#1429,#1430,#1431),(#1432,#1433,#1434),(#1435,#1436,
#1437)),.UNSPECIFIED.,.F.,.F.,.F.)
B_SPLINE_SURFACE_WITH_KNOTS((3,3),(3,3),(-1.5707963267949,7.2173170218015E-15),
(-2.10877322548431E-17,1.5707963267949),.UNSPECIFIED.)
GEOMETRIC_REPRESENTATION_ITEM()
RATIONAL_B_SPLINE_SURFACE(((1.,0.707106781186548,1.),(0.70710678118655,
0.500000000000002,0.70710678118655),(1.,0.707106781186548,1.)))
REPRESENTATION_ITEM('')
SURFACE()
);
#867=(
BOUNDED_SURFACE()
B_SPLINE_SURFACE(2,2,((#1472,#1473,#1474),(#1475,#1476,#1477),(#1478,#1479,
#1480)),.UNSPECIFIED.,.F.,.F.,.F.)
B_SPLINE_SURFACE_WITH_KNOTS((3,3),(3,3),(-1.5707963267949,3.13728834365409E-15),
(-3.14159265358979,-1.57079632679489),.UNSPECIFIED.)
GEOMETRIC_REPRESENTATION_ITEM()
RATIONAL_B_SPLINE_SURFACE(((1.,0.707106781186546,1.),(0.707106781186548,
0.499999999999999,0.707106781186548),(1.,0.707106781186546,1.)))
REPRESENTATION_ITEM('')
SURFACE()
);
#868=(
BOUNDED_SURFACE()
B_SPLINE_SURFACE(2,2,((#1517,#1518,#1519),(#1520,#1521,#1522),(#1523,#1524,
#1525)),.UNSPECIFIED.,.F.,.F.,.F.)
B_SPLINE_SURFACE_WITH_KNOTS((3,3),(3,3),(-1.5707963267949,7.49439739459183E-16),
(1.57079632679489,3.14159265358979),.UNSPECIFIED.)
GEOMETRIC_REPRESENTATION_ITEM()
RATIONAL_B_SPLINE_SURFACE(((1.,0.707106781186545,1.),(0.707106781186556,
0.500000000000004,0.707106781186556),(1.,0.707106781186545,1.)))
REPRESENTATION_ITEM('')
SURFACE()
);
#869=ADVANCED_FACE('',(#203),#865,.F.);
#870=ADVANCED_FACE('',(#204),#177,.T.);
#871=ADVANCED_FACE('',(#205),#178,.T.);
#872=ADVANCED_FACE('',(#206),#33,.T.);
#873=ADVANCED_FACE('',(#207),#34,.T.);
#874=ADVANCED_FACE('',(#208),#35,.T.);
#875=ADVANCED_FACE('',(#209),#36,.T.);
#876=ADVANCED_FACE('',(#210),#866,.F.);
#877=ADVANCED_FACE('',(#211),#179,.T.);
#878=ADVANCED_FACE('',(#212),#37,.T.);
#879=ADVANCED_FACE('',(#213),#38,.T.);
#880=ADVANCED_FACE('',(#214),#39,.T.);
#881=ADVANCED_FACE('',(#215),#867,.F.);
#882=ADVANCED_FACE('',(#216),#180,.T.);
#883=ADVANCED_FACE('',(#217),#40,.T.);
#884=ADVANCED_FACE('',(#218),#41,.T.);
#885=ADVANCED_FACE('',(#219),#181,.T.);
#886=ADVANCED_FACE('',(#220),#42,.T.);
#887=ADVANCED_FACE('',(#221),#868,.F.);
#888=ADVANCED_FACE('',(#222),#182,.T.);
#889=ADVANCED_FACE('',(#223),#183,.T.);
#890=ADVANCED_FACE('',(#224,#15),#43,.T.);
#891=ADVANCED_FACE('',(#225),#184,.T.);
#892=ADVANCED_FACE('',(#226),#44,.T.);
#893=ADVANCED_FACE('',(#227),#45,.F.);
#894=ADVANCED_FACE('',(#228),#185,.F.);
#895=ADVANCED_FACE('',(#229),#46,.F.);
#896=ADVANCED_FACE('',(#230),#186,.F.);
#897=ADVANCED_FACE('',(#231,#16),#47,.T.);
#898=ADVANCED_FACE('',(#232,#17),#48,.T.);
#899=ADVANCED_FACE('',(#233,#18),#49,.T.);
#900=ADVANCED_FACE('',(#234,#19),#50,.T.);
#901=ADVANCED_FACE('',(#235,#20),#51,.T.);
#902=ADVANCED_FACE('',(#236,#21),#52,.T.);
#903=ADVANCED_FACE('',(#237,#22),#53,.T.);
#904=ADVANCED_FACE('',(#238,#23),#54,.T.);
#905=ADVANCED_FACE('',(#239),#187,.F.);
#906=ADVANCED_FACE('',(#240),#188,.T.);
#907=ADVANCED_FACE('',(#241),#55,.F.);
#908=ADVANCED_FACE('',(#242),#189,.F.);
#909=ADVANCED_FACE('',(#243),#190,.T.);
#910=ADVANCED_FACE('',(#244),#56,.F.);
#911=ADVANCED_FACE('',(#245),#191,.F.);
#912=ADVANCED_FACE('',(#246),#192,.T.);
#913=ADVANCED_FACE('',(#247),#57,.F.);
#914=ADVANCED_FACE('',(#248),#193,.F.);
#915=ADVANCED_FACE('',(#249),#194,.T.);
#916=ADVANCED_FACE('',(#250,#24,#25,#26,#27,#28,#29,#30,#31),#58,.F.);
#917=ADVANCED_FACE('',(#251),#195,.F.);
#918=ADVANCED_FACE('',(#252),#196,.T.);
#919=ADVANCED_FACE('',(#253),#59,.F.);
#920=ADVANCED_FACE('',(#254),#197,.F.);
#921=ADVANCED_FACE('',(#255),#198,.T.);
#922=ADVANCED_FACE('',(#256),#60,.F.);
#923=ADVANCED_FACE('',(#257),#199,.F.);
#924=ADVANCED_FACE('',(#258),#200,.T.);
#925=ADVANCED_FACE('',(#259),#61,.F.);
#926=ADVANCED_FACE('',(#260),#201,.F.);
#927=ADVANCED_FACE('',(#261),#202,.T.);
#928=ADVANCED_FACE('',(#262),#62,.F.);
#929=ADVANCED_FACE('',(#263,#32),#63,.T.);
#930=ADVANCED_FACE('',(#264),#64,.F.);
#931=CLOSED_SHELL('',(#869,#870,#871,#872,#873,#874,#875,#876,#877,#878,
#879,#880,#881,#882,#883,#884,#885,#886,#887,#888,#889,#890,#891,#892,#893,
#894,#895,#896,#897,#898,#899,#900,#901,#902,#903,#904,#905,#906,#907,#908,
#909,#910,#911,#912,#913,#914,#915,#916,#917,#918,#919,#920,#921,#922,#923,
#924,#925,#926,#927,#928,#929,#930));
#932=DERIVED_UNIT_ELEMENT(#934,1.);
#933=DERIVED_UNIT_ELEMENT(#1685,-3.);
#934=(
MASS_UNIT()
NAMED_UNIT(*)
SI_UNIT(.KILO.,.GRAM.)
);
#935=DERIVED_UNIT((#932,#933));
#936=MEASURE_REPRESENTATION_ITEM('density measure',
POSITIVE_RATIO_MEASURE(7850.),#935);
#937=PROPERTY_DEFINITION_REPRESENTATION(#942,#939);
#938=PROPERTY_DEFINITION_REPRESENTATION(#943,#940);
#939=REPRESENTATION('material name',(#941),#1682);
#940=REPRESENTATION('density',(#936),#1682);
#941=DESCRIPTIVE_REPRESENTATION_ITEM('Steel','Steel');
#942=PROPERTY_DEFINITION('material property','material name',#1692);
#943=PROPERTY_DEFINITION('material property','density of part',#1692);
#944=AXIS2_PLACEMENT_3D('',#1357,#1063,#1064);
#945=AXIS2_PLACEMENT_3D('',#1374,#1065,#1066);
#946=AXIS2_PLACEMENT_3D('',#1376,#1067,#1068);
#947=AXIS2_PLACEMENT_3D('',#1378,#1069,#1070);
#948=AXIS2_PLACEMENT_3D('',#1380,#1071,#1072);
#949=AXIS2_PLACEMENT_3D('',#1382,#1073,#1074);
#950=AXIS2_PLACEMENT_3D('',#1387,#1075,#1076);
#951=AXIS2_PLACEMENT_3D('',#1390,#1077,#1078);
#952=AXIS2_PLACEMENT_3D('',#1393,#1081,#1082);
#953=AXIS2_PLACEMENT_3D('',#1397,#1084,#1085);
#954=AXIS2_PLACEMENT_3D('',#1399,#1087,#1088);
#955=AXIS2_PLACEMENT_3D('',#1412,#1093,#1094);
#956=AXIS2_PLACEMENT_3D('',#1423,#1098,#1099);
#957=AXIS2_PLACEMENT_3D('',#1426,#1101,#1102);
#958=AXIS2_PLACEMENT_3D('',#1427,#1103,#1104);
#959=AXIS2_PLACEMENT_3D('',#1428,#1105,#1106);
#960=AXIS2_PLACEMENT_3D('',#1444,#1107,#1108);
#961=AXIS2_PLACEMENT_3D('',#1446,#1109,#1110);
#962=AXIS2_PLACEMENT_3D('',#1447,#1111,#1112);
#963=AXIS2_PLACEMENT_3D('',#1448,#1113,#1114);
#964=AXIS2_PLACEMENT_3D('',#1451,#1115,#1116);
#965=AXIS2_PLACEMENT_3D('',#1454,#1119,#1120);
#966=AXIS2_PLACEMENT_3D('',#1458,#1122,#1123);
#967=AXIS2_PLACEMENT_3D('',#1460,#1125,#1126);
#968=AXIS2_PLACEMENT_3D('',#1462,#1128,#1129);
#969=AXIS2_PLACEMENT_3D('',#1466,#1131,#1132);
#970=AXIS2_PLACEMENT_3D('',#1470,#1134,#1135);
#971=AXIS2_PLACEMENT_3D('',#1487,#1137,#1138);
#972=AXIS2_PLACEMENT_3D('',#1489,#1139,#1140);
#973=AXIS2_PLACEMENT_3D('',#1491,#1141,#1142);
#974=AXIS2_PLACEMENT_3D('',#1492,#1143,#1144);
#975=AXIS2_PLACEMENT_3D('',#1493,#1145,#1146);
#976=AXIS2_PLACEMENT_3D('',#1496,#1149,#1150);
#977=AXIS2_PLACEMENT_3D('',#1507,#1154,#1155);
#978=AXIS2_PLACEMENT_3D('',#1510,#1157,#1158);
#979=AXIS2_PLACEMENT_3D('',#1511,#1159,#1160);
#980=AXIS2_PLACEMENT_3D('',#1514,#1162,#1163);
#981=AXIS2_PLACEMENT_3D('',#1515,#1164,#1165);
#982=AXIS2_PLACEMENT_3D('',#1531,#1167,#1168);
#983=AXIS2_PLACEMENT_3D('',#1532,#1169,#1170);
#984=AXIS2_PLACEMENT_3D('',#1533,#1171,#1172);
#985=AXIS2_PLACEMENT_3D('',#1535,#1174,#1175);
#986=AXIS2_PLACEMENT_3D('',#1537,#1177,#1178);
#987=AXIS2_PLACEMENT_3D('',#1542,#1180,#1181);
#988=AXIS2_PLACEMENT_3D('',#1545,#1183,#1184);
#989=AXIS2_PLACEMENT_3D('',#1546,#1185,#1186);
#990=AXIS2_PLACEMENT_3D('',#1548,#1188,#1189);
#991=AXIS2_PLACEMENT_3D('',#1549,#1190,#1191);
#992=AXIS2_PLACEMENT_3D('',#1555,#1195,#1196);
#993=AXIS2_PLACEMENT_3D('',#1557,#1197,#1198);
#994=AXIS2_PLACEMENT_3D('',#1559,#1200,#1201);
#995=AXIS2_PLACEMENT_3D('',#1563,#1204,#1205);
#996=AXIS2_PLACEMENT_3D('',#1564,#1206,#1207);
#997=AXIS2_PLACEMENT_3D('',#1565,#1208,#1209);
#998=AXIS2_PLACEMENT_3D('',#1567,#1210,#1211);
#999=AXIS2_PLACEMENT_3D('',#1569,#1212,#1213);
#1000=AXIS2_PLACEMENT_3D('',#1570,#1214,#1215);
#1001=AXIS2_PLACEMENT_3D('',#1572,#1216,#1217);
#1002=AXIS2_PLACEMENT_3D('',#1574,#1218,#1219);
#1003=AXIS2_PLACEMENT_3D('',#1575,#1220,#1221);
#1004=AXIS2_PLACEMENT_3D('',#1577,#1222,#1223);
#1005=AXIS2_PLACEMENT_3D('',#1579,#1224,#1225);
#1006=AXIS2_PLACEMENT_3D('',#1580,#1226,#1227);
#1007=AXIS2_PLACEMENT_3D('',#1582,#1228,#1229);
#1008=AXIS2_PLACEMENT_3D('',#1584,#1230,#1231);
#1009=AXIS2_PLACEMENT_3D('',#1585,#1232,#1233);
#1010=AXIS2_PLACEMENT_3D('',#1587,#1234,#1235);
#1011=AXIS2_PLACEMENT_3D('',#1589,#1236,#1237);
#1012=AXIS2_PLACEMENT_3D('',#1590,#1238,#1239);
#1013=AXIS2_PLACEMENT_3D('',#1592,#1240,#1241);
#1014=AXIS2_PLACEMENT_3D('',#1594,#1242,#1243);
#1015=AXIS2_PLACEMENT_3D('',#1595,#1244,#1245);
#1016=AXIS2_PLACEMENT_3D('',#1597,#1246,#1247);
#1017=AXIS2_PLACEMENT_3D('',#1599,#1248,#1249);
#1018=AXIS2_PLACEMENT_3D('',#1600,#1250,#1251);
#1019=AXIS2_PLACEMENT_3D('',#1602,#1252,#1253);
#1020=AXIS2_PLACEMENT_3D('',#1604,#1254,#1255);
#1021=AXIS2_PLACEMENT_3D('',#1605,#1256,#1257);
#1022=AXIS2_PLACEMENT_3D('',#1608,#1259,#1260);
#1023=AXIS2_PLACEMENT_3D('',#1609,#1261,#1262);
#1024=AXIS2_PLACEMENT_3D('',#1612,#1264,#1265);
#1025=AXIS2_PLACEMENT_3D('',#1613,#1266,#1267);
#1026=AXIS2_PLACEMENT_3D('',#1614,#1268,#1269);
#1027=AXIS2_PLACEMENT_3D('',#1617,#1271,#1272);
#1028=AXIS2_PLACEMENT_3D('',#1618,#1273,#1274);
#1029=AXIS2_PLACEMENT_3D('',#1621,#1276,#1277);
#1030=AXIS2_PLACEMENT_3D('',#1622,#1278,#1279);
#1031=AXIS2_PLACEMENT_3D('',#1623,#1280,#1281);
#1032=AXIS2_PLACEMENT_3D('',#1626,#1283,#1284);
#1033=AXIS2_PLACEMENT_3D('',#1627,#1285,#1286);
#1034=AXIS2_PLACEMENT_3D('',#1630,#1288,#1289);
#1035=AXIS2_PLACEMENT_3D('',#1631,#1290,#1291);
#1036=AXIS2_PLACEMENT_3D('',#1632,#1292,#1293);
#1037=AXIS2_PLACEMENT_3D('',#1635,#1295,#1296);
#1038=AXIS2_PLACEMENT_3D('',#1636,#1297,#1298);
#1039=AXIS2_PLACEMENT_3D('',#1639,#1300,#1301);
#1040=AXIS2_PLACEMENT_3D('',#1640,#1302,#1303);
#1041=AXIS2_PLACEMENT_3D('',#1643,#1305,#1306);
#1042=AXIS2_PLACEMENT_3D('',#1645,#1307,#1308);
#1043=AXIS2_PLACEMENT_3D('',#1647,#1309,#1310);
#1044=AXIS2_PLACEMENT_3D('',#1649,#1311,#1312);
#1045=AXIS2_PLACEMENT_3D('',#1650,#1313,#1314);
#1046=AXIS2_PLACEMENT_3D('',#1653,#1316,#1317);
#1047=AXIS2_PLACEMENT_3D('',#1654,#1318,#1319);
#1048=AXIS2_PLACEMENT_3D('',#1656,#1321,#1322);
#1049=AXIS2_PLACEMENT_3D('',#1657,#1323,#1324);
#1050=AXIS2_PLACEMENT_3D('',#1660,#1326,#1327);
#1051=AXIS2_PLACEMENT_3D('',#1661,#1328,#1329);
#1052=AXIS2_PLACEMENT_3D('',#1663,#1331,#1332);
#1053=AXIS2_PLACEMENT_3D('',#1664,#1333,#1334);
#1054=AXIS2_PLACEMENT_3D('',#1667,#1336,#1337);
#1055=AXIS2_PLACEMENT_3D('',#1668,#1338,#1339);
#1056=AXIS2_PLACEMENT_3D('',#1670,#1341,#1342);
#1057=AXIS2_PLACEMENT_3D('',#1671,#1343,#1344);
#1058=AXIS2_PLACEMENT_3D('',#1674,#1346,#1347);
#1059=AXIS2_PLACEMENT_3D('',#1675,#1348,#1349);
#1060=AXIS2_PLACEMENT_3D('',#1677,#1351,#1352);
#1061=AXIS2_PLACEMENT_3D('',#1678,#1353,#1354);
#1062=AXIS2_PLACEMENT_3D('',#1679,#1355,#1356);
#1063=DIRECTION('axis',(0.,0.,1.));
#1064=DIRECTION('refdir',(1.,0.,0.));
#1065=DIRECTION('center_axis',(-0.00284899128665472,0.0871553890361941,
-0.996190655151211));
#1066=DIRECTION('ref_axis',(-0.707103911475761,-0.704591605224996,-0.0596215415948182));
#1067=DIRECTION('center_axis',(0.,-0.996194698091746,-0.0871557427476582));
#1068=DIRECTION('ref_axis',(0.00284899128666243,-0.0871553890361941,0.996190655151211));
#1069=DIRECTION('center_axis',(0.00284899128665472,-0.0871553890361941,
0.996190655151211));
#1070=DIRECTION('ref_axis',(-0.707103911475761,-0.704591605224996,-0.0596215415948182));
#1071=DIRECTION('center_axis',(-0.999995941616089,-0.00024830595166862,
0.00283815001467518));
#1072=DIRECTION('ref_axis',(-1.38777878078145E-15,-0.996194698091746,-0.0871557427476582));
#1073=DIRECTION('center_axis',(-0.00284899128665472,0.0871553890361941,
-0.996190655151211));
#1074=DIRECTION('ref_axis',(-0.707103911475761,-0.704591605224996,-0.0596215415948182));
#1075=DIRECTION('center_axis',(0.00284899128665555,-0.0871553890361941,
0.996190655151211));
#1076=DIRECTION('ref_axis',(-0.707103911475762,-0.704591605224995,-0.0596215415948181));
#1077=DIRECTION('center_axis',(0.00284899128665555,-0.0871553890361941,
0.996190655151211));
#1078=DIRECTION('ref_axis',(-0.707103911475762,-0.704591605224995,-0.0596215415948181));
#1079=DIRECTION('',(0.00284899128665555,-0.0871553890361941,0.996190655151211));
#1080=DIRECTION('',(-0.00284899128665555,0.0871553890361941,-0.996190655151211));
#1081=DIRECTION('center_axis',(2.1541465626338E-16,-0.996194698091746,-0.0871557427476582));
#1082=DIRECTION('ref_axis',(-0.705089370417425,-0.0618037454266796,0.706420042733495));
#1083=DIRECTION('',(-2.1541465626338E-16,0.996194698091746,0.0871557427476582));
#1084=DIRECTION('center_axis',(1.05439129139586E-15,0.996194698091746,0.0871557427476581));
#1085=DIRECTION('ref_axis',(-0.999995941616089,-0.000248305951668948,0.00283815001467511));
#1086=DIRECTION('',(2.1541465626338E-16,-0.996194698091746,-0.0871557427476582));
#1087=DIRECTION('center_axis',(0.999995941616089,0.000248305951670223,-0.00283815001467499));
#1088=DIRECTION('ref_axis',(-2.25513133346483E-16,0.996194698091746,0.0871557427476582));
#1089=DIRECTION('',(0.00284899128665472,-0.0871553890361941,0.996190655151211));
#1090=DIRECTION('',(2.25513133346483E-16,-0.996194698091746,-0.0871557427476582));
#1091=DIRECTION('',(0.00284899128665472,-0.0871553890361941,0.996190655151211));
#1092=DIRECTION('',(-2.25513133346483E-16,0.996194698091746,0.0871557427476582));
#1093=DIRECTION('center_axis',(0.,0.996194698091746,0.0871557427476582));
#1094=DIRECTION('ref_axis',(-0.999995941616089,-0.000248305951670057,0.00283815001467568));
#1095=DIRECTION('',(-0.999995941616089,-0.000248305951670057,0.00283815001467568));
#1096=DIRECTION('',(0.00284899128665472,-0.0871553890361941,0.996190655151211));
#1097=DIRECTION('',(0.999995941616089,0.000248305951670068,-0.00283815001467581));
#1098=DIRECTION('center_axis',(0.00284899128665472,-0.0871553890361941,
0.996190655151211));
#1099=DIRECTION('ref_axis',(0.999995941616089,0.000248305951669999,-0.00283815001467502));
#1100=DIRECTION('',(-0.999995941616089,-0.000248305951669999,0.00283815001467502));
#1101=DIRECTION('center_axis',(-0.00284899128665472,0.0871553890361941,
-0.996190655151211));
#1102=DIRECTION('ref_axis',(0.707103911475759,-0.704240447580528,-0.0636352918376211));
#1103=DIRECTION('center_axis',(0.00284899128665472,-0.0871553890361941,
0.996190655151211));
#1104=DIRECTION('ref_axis',(0.999995941616089,0.000248305951669999,-0.00283815001467502));
#1105=DIRECTION('center_axis',(-0.00284899128665472,0.0871553890361941,
-0.996190655151211));
#1106=DIRECTION('ref_axis',(-0.707103911475764,0.704240447580523,0.0636352918376207));
#1107=DIRECTION('center_axis',(-0.00284899128665472,0.0871553890361941,
-0.996190655151211));
#1108=DIRECTION('ref_axis',(-0.707103911475764,0.704240447580523,0.0636352918376207));
#1109=DIRECTION('center_axis',(-0.999995941616089,-0.000248305951671385,
0.00283815001467494));
#1110=DIRECTION('ref_axis',(0.00284899128665477,-0.0871553890361952,0.996190655151211));
#1111=DIRECTION('center_axis',(0.00284899128665472,-0.0871553890361941,
0.996190655151211));
#1112=DIRECTION('ref_axis',(-0.707103911475764,0.704240447580523,0.0636352918376207));
#1113=DIRECTION('center_axis',(-0.00284899128665555,0.0871553890361941,
-0.996190655151211));
#1114=DIRECTION('ref_axis',(-0.707103911475764,0.704240447580524,0.0636352918376207));
#1115=DIRECTION('center_axis',(0.00284899128665555,-0.0871553890361941,
0.996190655151211));
#1116=DIRECTION('ref_axis',(-0.707103911475764,0.704240447580524,0.0636352918376207));
#1117=DIRECTION('',(0.00284899128665555,-0.0871553890361941,0.996190655151211));
#1118=DIRECTION('',(-0.00284899128665555,0.0871553890361941,-0.996190655151211));
#1119=DIRECTION('center_axis',(0.00284899128665472,-0.0871553890361941,
0.996190655151211));
#1120=DIRECTION('ref_axis',(0.999995941616089,0.000248305951669999,-0.00283815001467502));
#1121=DIRECTION('',(0.999995941616089,0.000248305951668058,-0.00283815001465305));
#1122=DIRECTION('center_axis',(-0.00284899128665472,0.0871553890361941,
-0.996190655151211));
#1123=DIRECTION('ref_axis',(0.70710391147576,0.704591605224997,0.0596215415948183));
#1124=DIRECTION('',(0.999995941616089,0.000248305951669999,-0.00283815001467502));
#1125=DIRECTION('center_axis',(-0.999995941616089,-0.000248305951670286,
0.00283815001467582));
#1126=DIRECTION('ref_axis',(-2.15416404744774E-16,0.996194698091746,0.0871557427476582));
#1127=DIRECTION('',(-2.15416404744774E-16,0.996194698091746,0.0871557427476582));
#1128=DIRECTION('center_axis',(-0.00284899128665555,0.0871553890361941,
-0.996190655151211));
#1129=DIRECTION('ref_axis',(-0.999995941616089,-0.000248305951670071,0.00283815001467584));
#1130=DIRECTION('',(0.999995941616089,0.000248305951670068,-0.00283815001467581));
#1131=DIRECTION('center_axis',(0.00284899128665555,-0.0871553890361941,
0.996190655151211));
#1132=DIRECTION('ref_axis',(0.707103911475759,0.704591605224997,0.0596215415948183));
#1133=DIRECTION('',(0.,-0.996194698091746,-0.0871557427476582));
#1134=DIRECTION('center_axis',(0.00284899128665555,-0.0871553890361941,
0.996190655151211));
#1135=DIRECTION('ref_axis',(0.707103911475759,-0.704240447580528,-0.0636352918376211));
#1136=DIRECTION('',(-0.999995941616089,-0.000248305951670068,0.00283815001467581));
#1137=DIRECTION('center_axis',(0.999995941616089,0.000248305951671223,-0.002838150014689));
#1138=DIRECTION('ref_axis',(0.00284899128666876,-0.0871553890361941,0.996190655151211));
#1139=DIRECTION('center_axis',(0.00284899128665472,-0.0871553890361941,
0.996190655151211));
#1140=DIRECTION('ref_axis',(0.707103911475759,-0.704240447580528,-0.0636352918376211));
#1141=DIRECTION('center_axis',(0.,-0.996194698091746,-0.0871557427476582));
#1142=DIRECTION('ref_axis',(0.999995941616089,0.000248305951669995,-0.00283815001467497));
#1143=DIRECTION('center_axis',(-0.00284899128665472,0.0871553890361941,
-0.996190655151211));
#1144=DIRECTION('ref_axis',(0.707103911475759,-0.704240447580528,-0.0636352918376211));
#1145=DIRECTION('center_axis',(-0.00284899128665555,0.0871553890361941,
-0.996190655151211));
#1146=DIRECTION('ref_axis',(0.707103911475759,-0.704240447580528,-0.0636352918376211));
#1147=DIRECTION('',(0.00284899128665555,-0.0871553890361941,0.996190655151211));
#1148=DIRECTION('',(-0.00284899128665555,0.0871553890361941,-0.996190655151211));
#1149=DIRECTION('center_axis',(-0.999995941616089,-0.000248305951669999,
0.00283815001467501));
#1150=DIRECTION('ref_axis',(-1.74488114004083E-16,-0.99619469809174,-0.0871557427477192));
#1151=DIRECTION('',(-1.74488114004083E-16,-0.99619469809174,-0.0871557427477192));
#1152=DIRECTION('',(0.00284899128665472,-0.0871553890361941,0.996190655151211));
#1153=DIRECTION('',(-1.38308942085139E-27,0.996194698091746,0.0871557427476582));
#1154=DIRECTION('center_axis',(0.00284899128665472,-0.0871553890361941,
0.996190655151211));
#1155=DIRECTION('ref_axis',(0.999995941616089,0.000248305951669999,-0.00283815001467502));
#1156=DIRECTION('',(0.,-0.996194698091746,-0.0871557427476582));
#1157=DIRECTION('center_axis',(-0.00284899128665472,0.0871553890361941,
-0.996190655151211));
#1158=DIRECTION('ref_axis',(0.70710391147576,0.704591605224997,0.0596215415948183));
#1159=DIRECTION('center_axis',(0.,0.996194698091746,0.0871557427476582));
#1160=DIRECTION('ref_axis',(0.709118452534098,-0.0614525877822097,0.702406292490689));
#1161=DIRECTION('',(0.,0.996194698091746,0.0871557427476582));
#1162=DIRECTION('center_axis',(1.27690944753713E-15,0.996194698091746,0.0871557427476582));
#1163=DIRECTION('ref_axis',(0.00284899128669719,-0.0871553890361941,0.996190655151211));
#1164=DIRECTION('center_axis',(0.999995941616089,0.000248305951670071,-0.00283815001467584));
#1165=DIRECTION('ref_axis',(0.,-0.996194698091746,-0.0871557427476582));
#1166=DIRECTION('',(-0.00284899128665555,0.0871553890361941,-0.996190655151211));
#1167=DIRECTION('center_axis',(0.00284899128665472,-0.0871553890361941,
0.996190655151211));
#1168=DIRECTION('ref_axis',(0.70710391147576,0.704591605224997,0.0596215415948183));
#1169=DIRECTION('center_axis',(0.999995941616089,0.000248305951671222,-0.002838150014689));
#1170=DIRECTION('ref_axis',(0.,0.996194698091746,0.0871557427476582));
#1171=DIRECTION('center_axis',(-0.00284899128665555,0.0871553890361941,
-0.996190655151211));
#1172=DIRECTION('ref_axis',(0.707103911475759,0.704591605224997,0.0596215415948183));
#1173=DIRECTION('',(0.00284899128665555,-0.0871553890361941,0.996190655151211));
#1174=DIRECTION('center_axis',(-0.999995941616089,-0.000248305951669999,
0.00283815001467502));
#1175=DIRECTION('ref_axis',(0.00201454105833494,0.642787859798313,0.766041584328311));
#1176=DIRECTION('',(-0.999995941616089,-0.000248305951669999,0.00283815001467502));
#1177=DIRECTION('center_axis',(0.,0.996194698091746,0.0871557427476582));
#1178=DIRECTION('ref_axis',(0.999995941616089,0.000248305951670068,-0.00283815001467581));
#1179=DIRECTION('',(-1.,0.,0.));
#1180=DIRECTION('center_axis',(0.,-0.996194698091746,-0.0871557427476582));
#1181=DIRECTION('ref_axis',(0.,-0.0871557427476582,0.996194698091745));
#1182=DIRECTION('',(1.,0.,0.));
#1183=DIRECTION('center_axis',(0.,-0.996194698091746,-0.0871557427476582));
#1184=DIRECTION('ref_axis',(0.,0.0871557427476582,-0.996194698091745));
#1185=DIRECTION('center_axis',(0.999995941616089,0.000248305951669999,-0.00283815001467502));
#1186=DIRECTION('ref_axis',(0.00201454105832489,-0.766044193007202,0.642784750895872));
#1187=DIRECTION('',(0.999995941616089,0.000248305951669999,-0.00283815001467502));
#1188=DIRECTION('center_axis',(0.,-0.996194698091746,-0.0871557427476582));
#1189=DIRECTION('ref_axis',(-0.999995941616089,-0.000248305951670068,0.00283815001467581));
#1190=DIRECTION('center_axis',(0.,0.0871557427476582,-0.996194698091746));
#1191=DIRECTION('ref_axis',(-1.,0.,0.));
#1192=DIRECTION('',(0.,0.996194698091746,0.0871557427476582));
#1193=DIRECTION('',(-1.,1.92345954027212E-17,1.68280904524596E-18));
#1194=DIRECTION('',(0.,0.996194698091746,0.0871557427476582));
#1195=DIRECTION('center_axis',(0.,0.996194698091746,0.0871557427476582));
#1196=DIRECTION('ref_axis',(0.,0.0871557427476582,-0.996194698091745));
#1197=DIRECTION('center_axis',(1.93080684323716E-17,0.996194698091746,0.0871557427476582));
#1198=DIRECTION('ref_axis',(0.,0.0871557427476582,-0.996194698091745));
#1199=DIRECTION('',(0.,0.996194698091746,0.0871557427476582));
#1200=DIRECTION('center_axis',(0.,-0.0871557427476582,0.996194698091746));
#1201=DIRECTION('ref_axis',(1.,0.,0.));
#1202=DIRECTION('',(1.,-1.92345954027212E-17,-1.68280904524596E-18));
#1203=DIRECTION('',(0.,0.996194698091746,0.0871557427476582));
#1204=DIRECTION('center_axis',(0.,0.996194698091746,0.0871557427476582));
#1205=DIRECTION('ref_axis',(0.,-0.0871557427476582,0.996194698091745));
#1206=DIRECTION('center_axis',(1.93080684323716E-17,0.996194698091746,0.0871557427476582));
#1207=DIRECTION('ref_axis',(0.,-0.0871557427476582,0.996194698091745));
#1208=DIRECTION('center_axis',(0.00284899128663214,-0.0871553890361941,
0.996190655151211));
#1209=DIRECTION('ref_axis',(0.,0.996194698091746,0.0871557427476582));
#1210=DIRECTION('center_axis',(-0.00284899128663214,0.0871553890361941,
-0.996190655151211));
#1211=DIRECTION('ref_axis',(0.,0.996194698091746,0.0871557427476582));
#1212=DIRECTION('center_axis',(0.00284899128663214,-0.0871553890361941,
0.996190655151211));
#1213=DIRECTION('ref_axis',(0.,0.996194698091746,0.0871557427476582));
#1214=DIRECTION('center_axis',(0.00284899128663214,-0.0871553890361941,
0.996190655151211));
#1215=DIRECTION('ref_axis',(0.,0.996194698091746,0.0871557427476582));
#1216=DIRECTION('center_axis',(-0.00284899128663214,0.0871553890361941,
-0.996190655151211));
#1217=DIRECTION('ref_axis',(0.,0.996194698091746,0.0871557427476582));
#1218=DIRECTION('center_axis',(0.00284899128663214,-0.0871553890361941,
0.996190655151211));
#1219=DIRECTION('ref_axis',(0.,0.996194698091746,0.0871557427476582));
#1220=DIRECTION('center_axis',(0.00284899128663214,-0.0871553890361941,
0.996190655151211));
#1221=DIRECTION('ref_axis',(0.,0.996194698091746,0.0871557427476582));
#1222=DIRECTION('center_axis',(-0.00284899128663214,0.0871553890361941,
-0.996190655151211));
#1223=DIRECTION('ref_axis',(0.,0.996194698091746,0.0871557427476582));
#1224=DIRECTION('center_axis',(0.00284899128663214,-0.0871553890361941,
0.996190655151211));
#1225=DIRECTION('ref_axis',(0.,0.996194698091746,0.0871557427476582));
#1226=DIRECTION('center_axis',(0.00284899128663214,-0.0871553890361941,
0.996190655151211));
#1227=DIRECTION('ref_axis',(0.,0.996194698091746,0.0871557427476582));
#1228=DIRECTION('center_axis',(-0.00284899128663214,0.0871553890361941,
-0.996190655151211));
#1229=DIRECTION('ref_axis',(0.,0.996194698091746,0.0871557427476582));
#1230=DIRECTION('center_axis',(0.00284899128663214,-0.0871553890361941,
0.996190655151211));
#1231=DIRECTION('ref_axis',(0.,0.996194698091746,0.0871557427476582));
#1232=DIRECTION('center_axis',(0.00284899128663214,-0.0871553890361941,
0.996190655151211));
#1233=DIRECTION('ref_axis',(0.,0.996194698091746,0.0871557427476582));
#1234=DIRECTION('center_axis',(-0.00284899128663214,0.0871553890361941,
-0.996190655151211));
#1235=DIRECTION('ref_axis',(0.,0.996194698091746,0.0871557427476582));
#1236=DIRECTION('center_axis',(0.00284899128663214,-0.0871553890361941,
0.996190655151211));
#1237=DIRECTION('ref_axis',(0.,0.996194698091746,0.0871557427476582));
#1238=DIRECTION('center_axis',(0.00284899128663214,-0.0871553890361941,
0.996190655151211));
#1239=DIRECTION('ref_axis',(0.,0.996194698091746,0.0871557427476582));
#1240=DIRECTION('center_axis',(-0.00284899128663214,0.0871553890361941,
-0.996190655151211));
#1241=DIRECTION('ref_axis',(0.,0.996194698091746,0.0871557427476582));
#1242=DIRECTION('center_axis',(0.00284899128663214,-0.0871553890361941,
0.996190655151211));
#1243=DIRECTION('ref_axis',(0.,0.996194698091746,0.0871557427476582));
#1244=DIRECTION('center_axis',(0.00284899128663214,-0.0871553890361941,
0.996190655151211));
#1245=DIRECTION('ref_axis',(0.,0.996194698091746,0.0871557427476582));
#1246=DIRECTION('center_axis',(-0.00284899128663214,0.0871553890361941,
-0.996190655151211));
#1247=DIRECTION('ref_axis',(0.,0.996194698091746,0.0871557427476582));
#1248=DIRECTION('center_axis',(0.00284899128663214,-0.0871553890361941,
0.996190655151211));
#1249=DIRECTION('ref_axis',(0.,0.996194698091746,0.0871557427476582));
#1250=DIRECTION('center_axis',(0.00284899128663214,-0.0871553890361941,
0.996190655151211));
#1251=DIRECTION('ref_axis',(0.,0.996194698091746,0.0871557427476582));
#1252=DIRECTION('center_axis',(-0.00284899128663214,0.0871553890361941,
-0.996190655151211));
#1253=DIRECTION('ref_axis',(0.,0.996194698091746,0.0871557427476582));
#1254=DIRECTION('center_axis',(0.00284899128663214,-0.0871553890361941,
0.996190655151211));
#1255=DIRECTION('ref_axis',(0.,0.996194698091746,0.0871557427476582));
#1256=DIRECTION('center_axis',(0.00284899128663213,-0.0871553890361941,
0.996190655151211));
#1257=DIRECTION('ref_axis',(0.,0.996194698091746,0.0871557427476582));
#1258=DIRECTION('',(-0.00284899128663213,0.0871553890361941,-0.996190655151211));
#1259=DIRECTION('center_axis',(0.00284899128665552,-0.0871553890361941,
0.996190655151211));
#1260=DIRECTION('ref_axis',(0.,0.996194698091746,0.0871557427476582));
#1261=DIRECTION('center_axis',(0.00284899128663213,-0.0871553890361941,
0.996190655151211));
#1262=DIRECTION('ref_axis',(0.,0.996194698091746,0.0871557427476582));
#1263=DIRECTION('',(-0.00284899128663213,0.0871553890361941,-0.996190655151211));
#1264=DIRECTION('center_axis',(-0.00284899128665552,0.0871553890361941,
-0.996190655151211));
#1265=DIRECTION('ref_axis',(0.,0.996194698091746,0.0871557427476582));
#1266=DIRECTION('center_axis',(-0.00284899128665552,0.0871553890361941,
-0.996190655151211));
#1267=DIRECTION('ref_axis',(0.999995941616089,0.000248305951670068,-0.00283815001467581));
#1268=DIRECTION('center_axis',(0.00284899128663341,-0.0871553890361941,
0.996190655151211));
#1269=DIRECTION('ref_axis',(0.,0.996194698091746,0.0871557427476582));
#1270=DIRECTION('',(-0.00284899128663341,0.0871553890361941,-0.996190655151211));
#1271=DIRECTION('center_axis',(0.00284899128665552,-0.0871553890361941,
0.996190655151211));
#1272=DIRECTION('ref_axis',(0.,0.996194698091746,0.0871557427476582));
#1273=DIRECTION('center_axis',(0.00284899128663341,-0.0871553890361941,
0.996190655151211));
#1274=DIRECTION('ref_axis',(0.,0.996194698091746,0.0871557427476582));
#1275=DIRECTION('',(-0.00284899128663341,0.0871553890361941,-0.996190655151211));
#1276=DIRECTION('center_axis',(-0.00284899128665552,0.0871553890361941,
-0.996190655151211));
#1277=DIRECTION('ref_axis',(0.,0.996194698091746,0.0871557427476582));
#1278=DIRECTION('center_axis',(-0.00284899128665552,0.0871553890361941,
-0.996190655151211));
#1279=DIRECTION('ref_axis',(0.999995941616089,0.000248305951670068,-0.00283815001467581));
#1280=DIRECTION('center_axis',(0.00284899128663213,-0.0871553890361941,
0.996190655151211));
#1281=DIRECTION('ref_axis',(0.,0.996194698091746,0.0871557427476582));
#1282=DIRECTION('',(-0.00284899128663213,0.0871553890361941,-0.996190655151211));
#1283=DIRECTION('center_axis',(0.00284899128665552,-0.0871553890361941,
0.996190655151211));
#1284=DIRECTION('ref_axis',(0.,0.996194698091746,0.0871557427476582));
#1285=DIRECTION('center_axis',(0.00284899128663213,-0.0871553890361941,
0.996190655151211));
#1286=DIRECTION('ref_axis',(0.,0.996194698091746,0.0871557427476582));
#1287=DIRECTION('',(-0.00284899128663213,0.0871553890361941,-0.996190655151211));
#1288=DIRECTION('center_axis',(-0.00284899128665552,0.0871553890361941,
-0.996190655151211));
#1289=DIRECTION('ref_axis',(0.,0.996194698091746,0.0871557427476582));
#1290=DIRECTION('center_axis',(-0.00284899128665552,0.0871553890361941,
-0.996190655151211));
#1291=DIRECTION('ref_axis',(0.999995941616089,0.000248305951670068,-0.00283815001467581));
#1292=DIRECTION('center_axis',(0.00284899128663341,-0.0871553890361941,
0.996190655151211));
#1293=DIRECTION('ref_axis',(0.,0.996194698091746,0.0871557427476582));
#1294=DIRECTION('',(-0.00284899128663341,0.0871553890361941,-0.996190655151211));
#1295=DIRECTION('center_axis',(0.00284899128665552,-0.0871553890361941,
0.996190655151211));
#1296=DIRECTION('ref_axis',(0.,0.996194698091746,0.0871557427476582));
#1297=DIRECTION('center_axis',(0.00284899128663341,-0.0871553890361941,
0.996190655151211));
#1298=DIRECTION('ref_axis',(0.,0.996194698091746,0.0871557427476582));
#1299=DIRECTION('',(-0.00284899128663341,0.0871553890361941,-0.996190655151211));
#1300=DIRECTION('center_axis',(-0.00284899128665552,0.0871553890361941,
-0.996190655151211));
#1301=DIRECTION('ref_axis',(0.,0.996194698091746,0.0871557427476582));
#1302=DIRECTION('center_axis',(-0.00284899128665552,0.0871553890361941,
-0.996190655151211));
#1303=DIRECTION('ref_axis',(0.999995941616089,0.000248305951670068,-0.00283815001467581));
#1304=DIRECTION('',(-0.999995941616089,-0.000248305951670049,0.00283815001467581));
#1305=DIRECTION('center_axis',(-0.00284899128665552,0.0871553890361941,
-0.996190655151211));
#1306=DIRECTION('ref_axis',(0.,0.996194698091746,0.0871557427476582));
#1307=DIRECTION('center_axis',(-0.00284899128665552,0.0871553890361941,
-0.996190655151211));
#1308=DIRECTION('ref_axis',(0.,0.996194698091746,0.0871557427476582));
#1309=DIRECTION('center_axis',(-0.00284899128665552,0.0871553890361941,
-0.996190655151211));
#1310=DIRECTION('ref_axis',(0.,0.996194698091746,0.0871557427476582));
#1311=DIRECTION('center_axis',(-0.00284899128665552,0.0871553890361941,
-0.996190655151211));
#1312=DIRECTION('ref_axis',(0.,0.996194698091746,0.0871557427476582));
#1313=DIRECTION('center_axis',(0.00284899128663163,-0.0871553890361941,
0.996190655151211));
#1314=DIRECTION('ref_axis',(0.,0.996194698091746,0.0871557427476582));
#1315=DIRECTION('',(-0.00284899128663163,0.0871553890361941,-0.996190655151211));
#1316=DIRECTION('center_axis',(0.00284899128665552,-0.0871553890361941,
0.996190655151211));
#1317=DIRECTION('ref_axis',(0.,0.996194698091746,0.0871557427476582));
#1318=DIRECTION('center_axis',(0.00284899128663163,-0.0871553890361941,
0.996190655151211));
#1319=DIRECTION('ref_axis',(0.,0.996194698091746,0.0871557427476582));
#1320=DIRECTION('',(-0.00284899128663163,0.0871553890361941,-0.996190655151211));
#1321=DIRECTION('center_axis',(-0.00284899128665552,0.0871553890361941,
-0.996190655151211));
#1322=DIRECTION('ref_axis',(0.999995941616089,0.000248305951670068,-0.00283815001467581));
#1323=DIRECTION('center_axis',(0.00284899128663341,-0.0871553890361941,
0.996190655151211));
#1324=DIRECTION('ref_axis',(0.,0.996194698091746,0.0871557427476582));
#1325=DIRECTION('',(-0.00284899128663341,0.0871553890361941,-0.996190655151211));
#1326=DIRECTION('center_axis',(0.00284899128665552,-0.0871553890361941,
0.996190655151211));
#1327=DIRECTION('ref_axis',(0.,0.996194698091746,0.0871557427476582));
#1328=DIRECTION('center_axis',(0.00284899128663341,-0.0871553890361941,
0.996190655151211));
#1329=DIRECTION('ref_axis',(0.,0.996194698091746,0.0871557427476582));
#1330=DIRECTION('',(-0.00284899128663341,0.0871553890361941,-0.996190655151211));
#1331=DIRECTION('center_axis',(-0.00284899128665552,0.0871553890361941,
-0.996190655151211));
#1332=DIRECTION('ref_axis',(0.999995941616089,0.000248305951670068,-0.00283815001467581));
#1333=DIRECTION('center_axis',(0.00284899128663163,-0.0871553890361941,
0.996190655151211));
#1334=DIRECTION('ref_axis',(0.,0.996194698091746,0.0871557427476582));
#1335=DIRECTION('',(-0.00284899128663163,0.0871553890361941,-0.996190655151211));
#1336=DIRECTION('center_axis',(0.00284899128665552,-0.0871553890361941,
0.996190655151211));
#1337=DIRECTION('ref_axis',(0.,0.996194698091746,0.0871557427476582));
#1338=DIRECTION('center_axis',(0.00284899128663163,-0.0871553890361941,
0.996190655151211));
#1339=DIRECTION('ref_axis',(0.,0.996194698091746,0.0871557427476582));
#1340=DIRECTION('',(-0.00284899128663163,0.0871553890361941,-0.996190655151211));
#1341=DIRECTION('center_axis',(-0.00284899128665552,0.0871553890361941,
-0.996190655151211));
#1342=DIRECTION('ref_axis',(0.999995941616089,0.000248305951670068,-0.00283815001467581));
#1343=DIRECTION('center_axis',(0.00284899128663341,-0.0871553890361941,
0.996190655151211));
#1344=DIRECTION('ref_axis',(0.,0.996194698091746,0.0871557427476582));
#1345=DIRECTION('',(-0.00284899128663341,0.0871553890361941,-0.996190655151211));
#1346=DIRECTION('center_axis',(0.00284899128665552,-0.0871553890361941,
0.996190655151211));
#1347=DIRECTION('ref_axis',(0.,0.996194698091746,0.0871557427476582));
#1348=DIRECTION('center_axis',(0.00284899128663341,-0.0871553890361941,
0.996190655151211));
#1349=DIRECTION('ref_axis',(0.,0.996194698091746,0.0871557427476582));
#1350=DIRECTION('',(-0.00284899128663341,0.0871553890361941,-0.996190655151211));
#1351=DIRECTION('center_axis',(-0.00284899128665552,0.0871553890361941,
-0.996190655151211));
#1352=DIRECTION('ref_axis',(0.999995941616089,0.000248305951670068,-0.00283815001467581));
#1353=DIRECTION('center_axis',(-1.93080684323716E-17,-0.996194698091746,
-0.0871557427476582));
#1354=DIRECTION('ref_axis',(0.999995941616089,0.000248305951668058,-0.00283815001465305));
#1355=DIRECTION('center_axis',(-0.00284899128665552,0.0871553890361941,
-0.996190655151211));
#1356=DIRECTION('ref_axis',(0.999995941616089,0.000248305951670068,-0.00283815001467581));
#1357=CARTESIAN_POINT('',(0.,0.,0.));
#1358=CARTESIAN_POINT('Ctrl Pts',(-5.2297895079089,-126.98002499411,89.6786276500218));
#1359=CARTESIAN_POINT('Ctrl Pts',(-5.22978950790891,-131.960998484569,89.2428489362835));
#1360=CARTESIAN_POINT('Ctrl Pts',(-0.229809799828467,-131.95975695481,89.2286581862101));
#1361=CARTESIAN_POINT('Ctrl Pts',(-5.22266702969229,-127.1979134667,92.1691042878998));
#1362=CARTESIAN_POINT('Ctrl Pts',(-5.22266702969229,-132.178886957159,91.7333255741615));
#1363=CARTESIAN_POINT('Ctrl Pts',(-0.22268732161183,-132.177645427401,91.7191348240882));
#1364=CARTESIAN_POINT('Ctrl Pts',(-2.72267717565201,-127.197292701821,92.1620089128631));
#1365=CARTESIAN_POINT('Ctrl Pts',(-2.72267717565202,-129.687779447051,91.944119555994));
#1366=CARTESIAN_POINT('Ctrl Pts',(-0.222687321611835,-129.687158682171,
91.9370241809573));
#1367=CARTESIAN_POINT('',(-2.22274093326871,-129.187669569697,91.9646941235452));
#1368=CARTESIAN_POINT('',(-2.22267920484403,-128.691460595983,92.0298562237342));
#1369=CARTESIAN_POINT('Ctrl Pts',(-2.22274093326871,-129.187669569697,91.9646941235452));
#1370=CARTESIAN_POINT('Ctrl Pts',(-2.22269515479023,-129.018245516915,91.9956464315282));
#1371=CARTESIAN_POINT('Ctrl Pts',(-2.22267920484403,-128.849756918422,92.016007090043));
#1372=CARTESIAN_POINT('Ctrl Pts',(-2.22267920484403,-128.691460595983,92.0298562237343));
#1373=CARTESIAN_POINT('',(-2.72267717565203,-127.197292701821,92.162008912863));
#1374=CARTESIAN_POINT('Origin',(-0.222687321611823,-127.196671936942,92.1549135378263));
#1375=CARTESIAN_POINT('',(-5.2297895079089,-126.98002499411,89.6786276500218));
#1376=CARTESIAN_POINT('Origin',(-2.72979965386868,-126.979404229231,89.6715322749851));
#1377=CARTESIAN_POINT('',(-0.229809799828466,-131.95975695481,89.2286581862101));
#1378=CARTESIAN_POINT('Origin',(-0.229809799828459,-126.978783464352,89.6644368999484));
#1379=CARTESIAN_POINT('',(-0.222687321611826,-129.687158682171,91.9370241809571));
#1380=CARTESIAN_POINT('Origin',(-0.229809799828463,-129.469270209581,89.4465475430793));
#1381=CARTESIAN_POINT('',(-1.72268123403596,-129.189433792053,91.9848592773532));
#1382=CARTESIAN_POINT('Origin',(-0.222687321611823,-127.196671936942,92.1549135378263));
#1383=CARTESIAN_POINT('Ctrl Pts',(-1.72268123403597,-129.189433792053,91.9848592773531));
#1384=CARTESIAN_POINT('Ctrl Pts',(-1.88131924310617,-129.189473182975,91.9853095176481));
#1385=CARTESIAN_POINT('Ctrl Pts',(-2.05115753586623,-129.18902791613,91.9802200943236));
#1386=CARTESIAN_POINT('Ctrl Pts',(-2.22274093326871,-129.187669569697,91.9646941235452));
#1387=CARTESIAN_POINT('Origin',(-0.279667147344931,-125.453564156218,72.2311004348022));
#1388=CARTESIAN_POINT('',(-5.29104282057198,-125.106184129832,68.2605285642707));
#1389=CARTESIAN_POINT('',(-0.291063112491656,-130.085916090532,67.8105591004591));
#1390=CARTESIAN_POINT('Origin',(-0.291063112491554,-125.104942600073,68.2463378141974));
#1391=CARTESIAN_POINT('',(-0.279667147344931,-130.434537646677,71.7953217210639));
#1392=CARTESIAN_POINT('',(-5.27964685542536,-125.454805685977,72.2452911848756));
#1393=CARTESIAN_POINT('Origin',(-2.72979965386869,-98.5878548660155,92.1554709842029));
#1394=CARTESIAN_POINT('',(-2.72267717565205,-3.66914826804264,102.969321177212));
#1395=CARTESIAN_POINT('',(-2.72267717565205,-98.8057433386059,94.645947622081));
#1396=CARTESIAN_POINT('',(-5.22978950790891,-3.45188056033134,100.48593991437));
#1397=CARTESIAN_POINT('Origin',(-2.72979965386869,-3.45125979545217,100.478844539334));
#1398=CARTESIAN_POINT('',(-5.22978950790889,-98.5884756308946,92.1625663592396));
#1399=CARTESIAN_POINT('Origin',(-2.27965903057712,-127.446450164305,72.0624652493363));
#1400=CARTESIAN_POINT('',(-2.27965903057712,-127.446450164305,72.0624652493363));
#1401=CARTESIAN_POINT('',(-2.27965903057712,-127.446450164305,72.0624652493363));
#1402=CARTESIAN_POINT('',(-2.27965903057715,0.0664730618405429,83.2184004846756));
#1403=CARTESIAN_POINT('',(-2.27965903057711,-95.5682193577686,74.8514490581711));
#1404=CARTESIAN_POINT('',(-2.22274093326874,-1.67474634355105,103.120629358884));
#1405=CARTESIAN_POINT('',(-2.27965903057715,0.0664730618405429,83.2184004846756));
#1406=CARTESIAN_POINT('',(-2.22267920484413,-2.17473206792937,103.098635716326));
#1407=CARTESIAN_POINT('Ctrl Pts',(-2.22267920484405,-2.17473206792927,103.098635716326));
#1408=CARTESIAN_POINT('Ctrl Pts',(-2.22267920484405,-2.01643574549018,103.112484850017));
#1409=CARTESIAN_POINT('Ctrl Pts',(-2.22269515479025,-1.84697127615273,103.121691253741));
#1410=CARTESIAN_POINT('Ctrl Pts',(-2.22274093326874,-1.67474634355105,103.120629358884));
#1411=CARTESIAN_POINT('',(-2.22267920484413,-1.67663471888334,103.1422135877));
#1412=CARTESIAN_POINT('Origin',(342.720365319726,-127.360784257267,71.0832994513327));
#1413=CARTESIAN_POINT('',(342.277347174651,-129.104016190967,91.0085316293642));
#1414=CARTESIAN_POINT('',(-2.2226792048441,-129.189557945029,91.9862783523605));
#1415=CARTESIAN_POINT('',(342.777283417034,-129.102003662659,90.9855283255415));
#1416=CARTESIAN_POINT('Ctrl Pts',(342.777283417034,-129.102003662659,90.9855283255415));
#1417=CARTESIAN_POINT('Ctrl Pts',(342.605852876933,-129.103446681332,91.0020221044524));
#1418=CARTESIAN_POINT('Ctrl Pts',(342.436247518442,-129.103976734906,91.0080806445207));
#1419=CARTESIAN_POINT('Ctrl Pts',(342.277347174651,-129.104016190967,91.0085316293641));
#1420=CARTESIAN_POINT('',(342.720365319726,-127.360784257267,71.0832994513327));
#1421=CARTESIAN_POINT('',(342.720365319726,-127.360784257267,71.0832994513327));
#1422=CARTESIAN_POINT('',(256.47035923215,-127.382200734027,71.3280909008335));
#1423=CARTESIAN_POINT('Origin',(170.277332970307,-65.3902633784373,97.0746630710282));
#1424=CARTESIAN_POINT('',(340.777353262227,-129.60248599894,90.9692109830124));
#1425=CARTESIAN_POINT('',(258.027332970307,-129.623033404869,91.2040689074619));
#1426=CARTESIAN_POINT('Origin',(340.777353262227,-127.111999253711,91.1871003398815));
#1427=CARTESIAN_POINT('Origin',(170.277332970307,-65.3902633784373,97.0746630710282));
#1428=CARTESIAN_POINT('Origin',(-0.222687321611829,-3.66852750316347,102.962225802175));
#1429=CARTESIAN_POINT('Ctrl Pts',(-2.72267717565205,-3.66914826804266,102.969321177212));
#1430=CARTESIAN_POINT('Ctrl Pts',(-2.72267717565204,-1.1786615228133,103.187210534081));
#1431=CARTESIAN_POINT('Ctrl Pts',(-0.222687321611829,-1.17804075793412,
103.180115159044));
#1432=CARTESIAN_POINT('Ctrl Pts',(-5.22266702969229,-3.66976903292183,102.976416552248));
#1433=CARTESIAN_POINT('Ctrl Pts',(-5.22266702969229,1.31120445753691,103.412195265987));
#1434=CARTESIAN_POINT('Ctrl Pts',(-0.222687321611829,1.31244598729526,103.398004515913));
#1435=CARTESIAN_POINT('Ctrl Pts',(-5.22978950790891,-3.45188056033134,100.48593991437));
#1436=CARTESIAN_POINT('Ctrl Pts',(-5.22978950790891,1.52909293012738,100.921718628109));
#1437=CARTESIAN_POINT('Ctrl Pts',(-0.229809799828465,1.53033445988573,100.907527878035));
#1438=CARTESIAN_POINT('',(-1.72268123403608,-1.6765105659075,103.140794512692));
#1439=CARTESIAN_POINT('Ctrl Pts',(-2.22274093326873,-1.67474634355105,103.120629358884));
#1440=CARTESIAN_POINT('Ctrl Pts',(-2.0512188362106,-1.67610420469791,103.136149782813));
#1441=CARTESIAN_POINT('Ctrl Pts',(-1.88158157782706,-1.67655002196871,103.141245497536));
#1442=CARTESIAN_POINT('Ctrl Pts',(-1.72268123403596,-1.6765105659075,103.140794512692));
#1443=CARTESIAN_POINT('',(-0.222687321611832,-1.17804075793411,103.180115159044));
#1444=CARTESIAN_POINT('Origin',(-0.222687321611829,-3.66852750316347,102.962225802175));
#1445=CARTESIAN_POINT('',(-0.229809799828472,1.53033445988573,100.907527878035));
#1446=CARTESIAN_POINT('Origin',(-0.229809799828469,-0.960152285343633,100.689638521166));
#1447=CARTESIAN_POINT('Origin',(-0.229809799828465,-3.450639030573,100.471749164297));
#1448=CARTESIAN_POINT('Origin',(-0.279667147344937,-1.9254197224396,83.0384126991508));
#1449=CARTESIAN_POINT('',(-0.29106311249156,3.4041753241639,79.4894287922843));
#1450=CARTESIAN_POINT('',(-5.29104282057201,-1.57803969605317,79.0678408286193));
#1451=CARTESIAN_POINT('Origin',(-0.29106311249156,-1.57679816629482,79.053650078546));
#1452=CARTESIAN_POINT('',(-5.27964685542538,-1.92666125219795,83.0526034492242));
#1453=CARTESIAN_POINT('',(-0.279667147344937,3.05555376801912,83.4741914128891));
#1454=CARTESIAN_POINT('Origin',(170.277332970307,-65.3902633784373,97.0746630710282));
#1455=CARTESIAN_POINT('',(342.277347174651,-1.59109296482223,102.164466864711));
#1456=CARTESIAN_POINT('',(342.777345145459,-1.59096881184639,102.163047789704));
#1457=CARTESIAN_POINT('',(340.777353262227,-1.09336807470317,102.212301961099));
#1458=CARTESIAN_POINT('Origin',(340.777353262227,-3.58385481993254,101.99441260423));
#1459=CARTESIAN_POINT('',(82.5273329703075,-1.15749335200555,102.945257234595));
#1460=CARTESIAN_POINT('Origin',(-5.27964685542536,-130.435779176435,71.8095124711373));
#1461=CARTESIAN_POINT('',(-5.29104282057198,-130.08715762029,67.8247498505325));
#1462=CARTESIAN_POINT('Origin',(170.208957179428,-63.2985340415686,73.1660873473992));
#1463=CARTESIAN_POINT('',(340.708977471347,3.48884800739486,78.5216155943393));
#1464=CARTESIAN_POINT('',(-5.29104282057201,3.40293379440555,79.5036195423576));
#1465=CARTESIAN_POINT('',(345.708957179427,-1.49088395330552,78.0716461305276));
#1466=CARTESIAN_POINT('Origin',(340.708977471347,-1.49212548306387,78.085836880601));
#1467=CARTESIAN_POINT('',(345.708957179427,-125.019028387084,67.264333866179));
#1468=CARTESIAN_POINT('',(345.708957179427,3.49008953715321,78.5074248442659));
#1469=CARTESIAN_POINT('',(340.708977471347,-130.001243407301,66.8427459025141));
#1470=CARTESIAN_POINT('Origin',(340.708977471347,-125.020269916842,67.2785246162524));
#1471=CARTESIAN_POINT('',(345.708957179427,-130.000001877543,66.8285551524407));
#1472=CARTESIAN_POINT('Ctrl Pts',(343.277343116267,-127.111378488832,91.1800049648447));
#1473=CARTESIAN_POINT('Ctrl Pts',(343.277343116267,-129.601865234061,90.9621156079756));
#1474=CARTESIAN_POINT('Ctrl Pts',(340.777353262226,-129.60248599894,90.9692109830123));
#1475=CARTESIAN_POINT('Ctrl Pts',(345.777332970307,-127.110757723953,91.172909589808));
#1476=CARTESIAN_POINT('Ctrl Pts',(345.777332970307,-132.091731214412,90.7371308760698));
#1477=CARTESIAN_POINT('Ctrl Pts',(340.777353262227,-132.09297274417,90.7513216261431));
#1478=CARTESIAN_POINT('Ctrl Pts',(345.77021049209,-126.892869251362,88.68243295193));
#1479=CARTESIAN_POINT('Ctrl Pts',(345.77021049209,-131.873842741821,88.2466542381917));
#1480=CARTESIAN_POINT('Ctrl Pts',(340.77023078401,-131.875084271579,88.2608449882651));
#1481=CARTESIAN_POINT('',(342.777345145459,-128.605794688945,91.0506904257307));
#1482=CARTESIAN_POINT('Ctrl Pts',(342.777345145459,-128.605794688945,91.0506904257306));
#1483=CARTESIAN_POINT('Ctrl Pts',(342.777345145459,-128.763829673864,91.0368641561097));
#1484=CARTESIAN_POINT('Ctrl Pts',(342.777329211873,-128.932519059357,91.0164916955806));
#1485=CARTESIAN_POINT('Ctrl Pts',(342.777283417034,-129.102003662659,90.9855283255415));
#1486=CARTESIAN_POINT('',(340.77023078401,-131.875084271579,88.2608449882651));
#1487=CARTESIAN_POINT('Origin',(340.77023078401,-129.38459752635,88.4787343451342));
#1488=CARTESIAN_POINT('',(345.77021049209,-126.892869251362,88.68243295193));
#1489=CARTESIAN_POINT('Origin',(340.77023078401,-126.894110781121,88.6966237020034));
#1490=CARTESIAN_POINT('',(343.277343116267,-127.111378488832,91.1800049648449));
#1491=CARTESIAN_POINT('Origin',(343.27022063805,-126.893490016241,88.6895283269667));
#1492=CARTESIAN_POINT('Origin',(340.777353262227,-127.111999253711,91.1871003398815));
#1493=CARTESIAN_POINT('Origin',(340.720373436493,-125.368891472987,71.2632872368572));
#1494=CARTESIAN_POINT('',(345.720353144574,-125.367649943229,71.2490964867839));
#1495=CARTESIAN_POINT('',(340.720373436493,-130.349864963446,70.8275085231189));
#1496=CARTESIAN_POINT('Origin',(342.720365319726,0.152138968877487,82.2392346866797));
#1497=CARTESIAN_POINT('',(342.777345145459,-2.08906616089222,102.11946991833));
#1498=CARTESIAN_POINT('',(342.777345145459,-129.103892037991,91.0071125543569));
#1499=CARTESIAN_POINT('',(342.777283417034,-1.58908043651341,102.141463560881));
#1500=CARTESIAN_POINT('Ctrl Pts',(342.777283417034,-1.58908043651341,102.141463560881));
#1501=CARTESIAN_POINT('Ctrl Pts',(342.777329195513,-1.76130536911225,102.142525455738));
#1502=CARTESIAN_POINT('Ctrl Pts',(342.777345145459,-1.93076983845469,102.133319052013));
#1503=CARTESIAN_POINT('Ctrl Pts',(342.777345145459,-2.08906616089158,102.119469918322));
#1504=CARTESIAN_POINT('',(342.720365319726,0.152138968877487,82.2392346866797));
#1505=CARTESIAN_POINT('',(342.720365319726,0.152138968877487,82.2392346866797));
#1506=CARTESIAN_POINT('',(342.720365319726,-31.7260918376582,79.450250877837));
#1507=CARTESIAN_POINT('Origin',(170.277332970307,-65.3902633784373,97.0746630710282));
#1508=CARTESIAN_POINT('',(343.277343116267,-3.58323405505337,101.987317229193));
#1509=CARTESIAN_POINT('',(343.277343116267,-31.9747834182686,99.5033785199755));
#1510=CARTESIAN_POINT('Origin',(340.777353262227,-3.58385481993254,101.99441260423));
#1511=CARTESIAN_POINT('Origin',(343.27022063805,-31.7568949456781,97.0129018820974));
#1512=CARTESIAN_POINT('',(345.77021049209,-3.3647248175837,99.4897452162786));
#1513=CARTESIAN_POINT('',(345.77021049209,-31.756274180799,97.0058065070608));
#1514=CARTESIAN_POINT('Origin',(343.27022063805,-3.36534558246287,99.4968405913153));
#1515=CARTESIAN_POINT('Origin',(345.720353144574,3.14146798100843,82.4921874648707));
#1516=CARTESIAN_POINT('',(345.720353144574,-1.8395055094503,82.0564087511325));
#1517=CARTESIAN_POINT('Ctrl Pts',(340.777353262227,-1.09336807470319,102.212301961099));
#1518=CARTESIAN_POINT('Ctrl Pts',(343.277343116267,-1.09274730982401,102.205206586062));
#1519=CARTESIAN_POINT('Ctrl Pts',(343.277343116267,-3.58323405505335,101.987317229193));
#1520=CARTESIAN_POINT('Ctrl Pts',(340.777353262226,1.39711867052615,102.430191317968));
#1521=CARTESIAN_POINT('Ctrl Pts',(345.777332970307,1.39836020028451,102.416000567895));
#1522=CARTESIAN_POINT('Ctrl Pts',(345.777332970307,-3.58261329017418,101.980221854157));
#1523=CARTESIAN_POINT('Ctrl Pts',(340.77023078401,1.61500714311663,99.9397146800903));
#1524=CARTESIAN_POINT('Ctrl Pts',(345.77021049209,1.616248672875,99.9255239300169));
#1525=CARTESIAN_POINT('Ctrl Pts',(345.77021049209,-3.36472481758369,99.4897452162786));
#1526=CARTESIAN_POINT('Ctrl Pts',(342.277347174651,-1.59109296482153,102.164466864703));
#1527=CARTESIAN_POINT('Ctrl Pts',(342.435985183721,-1.59105357389986,102.164016624408));
#1528=CARTESIAN_POINT('Ctrl Pts',(342.60579160931,-1.59052397090779,102.157963234509));
#1529=CARTESIAN_POINT('Ctrl Pts',(342.777283417034,-1.58908043651341,102.141463560881));
#1530=CARTESIAN_POINT('',(340.77023078401,1.61500714311669,99.9397146800903));
#1531=CARTESIAN_POINT('Origin',(340.77023078401,-3.36596634734204,99.503935966352));
#1532=CARTESIAN_POINT('Origin',(340.77023078401,-0.875479602112678,99.7218253232211));
#1533=CARTESIAN_POINT('Origin',(340.720373436493,-1.84074703920865,82.0705995012058));
#1534=CARTESIAN_POINT('',(340.720373436493,3.14022645125008,82.5063782149441));
#1535=CARTESIAN_POINT('Origin',(82.5202104920909,-0.939604879415064,100.454780596716));
#1536=CARTESIAN_POINT('',(82.5202104920909,1.5508818658143,100.672669953586));
#1537=CARTESIAN_POINT('Origin',(-5.27964685542538,3.05431223826077,83.4883821629625));
#1538=CARTESIAN_POINT('',(325.367057723181,1.63502681962199,99.7108887305503));
#1539=CARTESIAN_POINT('',(319.617057723181,1.63502681962199,99.7108887305503));
#1540=CARTESIAN_POINT('',(157.168705433878,1.63502681962199,99.7108887305503));
#1541=CARTESIAN_POINT('',(319.617057723181,1.96186085492571,95.9751586127063));
#1542=CARTESIAN_POINT('Origin',(319.617057723181,1.79844383727385,97.8430236716283));
#1543=CARTESIAN_POINT('',(325.367057723181,1.96186085492571,95.9751586127063));
#1544=CARTESIAN_POINT('',(160.043705433878,1.96186085492571,95.9751586127063));
#1545=CARTESIAN_POINT('Origin',(325.367057723181,1.79844383727385,97.8430236716283));
#1546=CARTESIAN_POINT('Origin',(258.020210492091,-129.405144932279,88.7135922695839));
#1547=CARTESIAN_POINT('',(258.020210492091,-131.895631677508,88.4957029127147));
#1548=CARTESIAN_POINT('Origin',(345.720353144574,-130.348623433688,70.8133177730456));
#1549=CARTESIAN_POINT('Origin',(325.367057723181,-1.02672510975162,95.7136912208243));
#1550=CARTESIAN_POINT('',(319.617057723181,-1.02672510975162,95.7136912208243));
#1551=CARTESIAN_POINT('',(319.617057723181,-1.02672510975162,95.7136912208243));
#1552=CARTESIAN_POINT('',(325.367057723181,-1.02672510975162,95.7136912208243));
#1553=CARTESIAN_POINT('',(161.543699346302,-1.02672323934953,95.7136913844633));
#1554=CARTESIAN_POINT('',(325.367057723181,-1.02672510975162,95.7136912208243));
#1555=CARTESIAN_POINT('Origin',(325.367057723181,-1.19014212740348,97.5815562797463));
#1556=CARTESIAN_POINT('',(325.367057723181,-1.35355914505534,99.4494213386683));
#1557=CARTESIAN_POINT('Origin',(325.367057723181,-1.19014025700138,97.5815564433853));
#1558=CARTESIAN_POINT('',(325.367057723181,-1.35355914505534,99.4494213386683));
#1559=CARTESIAN_POINT('Origin',(319.617057723181,-1.35355914505534,99.4494213386683));
#1560=CARTESIAN_POINT('',(319.617057723181,-1.35355914505534,99.4494213386683));
#1561=CARTESIAN_POINT('',(158.668699346302,-1.35355727465325,99.4494215023073));
#1562=CARTESIAN_POINT('',(319.617057723181,-1.35355914505534,99.4494213386683));
#1563=CARTESIAN_POINT('Origin',(319.617057723181,-1.19014212740348,97.5815562797463));
#1564=CARTESIAN_POINT('Origin',(319.617057723181,-1.19014025700138,97.5815564433853));
#1565=CARTESIAN_POINT('Origin',(337.726113619995,-5.53011245518821,89.8190987489096));
#1566=CARTESIAN_POINT('',(337.726113619995,-9.5148912475552,89.470475777919));
#1567=CARTESIAN_POINT('Origin',(337.726113619995,-5.53011245518821,89.8190987489096));
#1568=CARTESIAN_POINT('',(337.726113619995,-7.82136026079922,89.61864054059));
#1569=CARTESIAN_POINT('Origin',(337.726113619995,-5.53011245518821,89.8190987489096));
#1570=CARTESIAN_POINT('Origin',(176.92675722947,-123.121011653358,79.9910958953859));
#1571=CARTESIAN_POINT('',(176.92675722947,-127.105790445725,79.6424729243953));
#1572=CARTESIAN_POINT('Origin',(176.92675722947,-123.121011653358,79.9910958953859));
#1573=CARTESIAN_POINT('',(176.92675722947,-125.412259458969,79.7906376870663));
#1574=CARTESIAN_POINT('Origin',(176.92675722947,-123.121011653358,79.9910958953859));
#1575=CARTESIAN_POINT('Origin',(107.727043621041,-23.5187276577745,88.903069869172));
#1576=CARTESIAN_POINT('',(107.727043621041,-27.5035064501415,88.5544468981813));
#1577=CARTESIAN_POINT('Origin',(107.727043621041,-23.5187276577745,88.903069869172));
#1578=CARTESIAN_POINT('',(107.727043621041,-25.8099754633855,88.7026116608523));
#1579=CARTESIAN_POINT('Origin',(107.727043621041,-23.5187276577745,88.903069869172));
#1580=CARTESIAN_POINT('Origin',(2.72746809360459,-5.61329480181506,90.7698790312375));
#1581=CARTESIAN_POINT('',(2.72746809360459,-9.59807359418204,90.4212560602468));
#1582=CARTESIAN_POINT('Origin',(2.72746809360459,-5.61329480181506,90.7698790312375));
#1583=CARTESIAN_POINT('',(2.72746809360459,-7.90454260742607,90.5694208229179));
#1584=CARTESIAN_POINT('Origin',(2.72746809360459,-5.61329480181506,90.7698790312375));
#1585=CARTESIAN_POINT('Origin',(107.727039616371,-123.337433359995,80.1700647238501));
#1586=CARTESIAN_POINT('',(107.727039616371,-127.322212152362,79.8214417528595));
#1587=CARTESIAN_POINT('Origin',(107.727039616371,-123.337433359995,80.1700647238501));
#1588=CARTESIAN_POINT('',(107.727039616371,-125.628681165606,79.9696065155305));
#1589=CARTESIAN_POINT('Origin',(107.727039616371,-123.337433359995,80.1700647238501));
#1590=CARTESIAN_POINT('Origin',(187.971725271529,-23.498803059256,88.6753224379826));
#1591=CARTESIAN_POINT('',(187.971725271529,-27.483581851623,88.326699466992));
#1592=CARTESIAN_POINT('Origin',(187.971725271529,-23.498803059256,88.6753224379826));
#1593=CARTESIAN_POINT('',(187.971725271529,-25.790050864867,88.474864229663));
#1594=CARTESIAN_POINT('Origin',(187.971725271529,-23.498803059256,88.6753224379826));
#1595=CARTESIAN_POINT('Origin',(337.726113619995,-123.08108858166,79.5347209514368));
#1596=CARTESIAN_POINT('',(337.726113619995,-127.065867374027,79.1860979804461));
#1597=CARTESIAN_POINT('Origin',(337.726113619995,-123.08108858166,79.5347209514368));
#1598=CARTESIAN_POINT('',(337.726113619995,-125.372336387271,79.3342627431172));
#1599=CARTESIAN_POINT('Origin',(337.726113619995,-123.08108858166,79.5347209514368));
#1600=CARTESIAN_POINT('Origin',(2.72746809360459,-123.164266549172,80.4855016168876));
#1601=CARTESIAN_POINT('',(2.72746809360459,-127.149045341539,80.136878645897));
#1602=CARTESIAN_POINT('Origin',(2.72746809360459,-123.164266549172,80.4855016168876));
#1603=CARTESIAN_POINT('',(2.72746809360459,-125.455514354783,80.285043408568));
#1604=CARTESIAN_POINT('Origin',(2.72746809360459,-123.164266549172,80.4855016168876));
#1605=CARTESIAN_POINT('Origin',(2.70458499559036,-4.91326271707635,82.768475689063));
#1606=CARTESIAN_POINT('',(2.70458499559036,-7.20451052268736,82.5680174807434));
#1607=CARTESIAN_POINT('',(2.70458499559036,-7.20451052268736,82.5680174807434));
#1608=CARTESIAN_POINT('Origin',(2.70458499559035,-4.913262717076,82.768475689059));
#1609=CARTESIAN_POINT('Origin',(2.70458499559036,-4.91326271707635,82.768475689063));
#1610=CARTESIAN_POINT('',(2.70458499559036,-8.89804150944333,82.4198527180723));
#1611=CARTESIAN_POINT('',(2.70458499559036,-8.89804150944333,82.4198527180723));
#1612=CARTESIAN_POINT('Origin',(2.70458499559035,-4.913262717076,82.768475689059));
#1613=CARTESIAN_POINT('Origin',(170.220353144574,-63.6471555977134,77.150849968004));
#1614=CARTESIAN_POINT('Origin',(337.703230521981,-122.381056496921,71.5333176092623));
#1615=CARTESIAN_POINT('',(337.703230521981,-124.672304302533,71.3328594009427));
#1616=CARTESIAN_POINT('',(337.703230521981,-124.672304302533,71.3328594009427));
#1617=CARTESIAN_POINT('Origin',(337.703230521981,-122.381056496921,71.5333176092581));
#1618=CARTESIAN_POINT('Origin',(337.703230521981,-122.381056496921,71.5333176092623));
#1619=CARTESIAN_POINT('',(337.703230521981,-126.365835289288,71.1846946382716));
#1620=CARTESIAN_POINT('',(337.703230521981,-126.365835289288,71.1846946382716));
#1621=CARTESIAN_POINT('Origin',(337.703230521981,-122.381056496921,71.5333176092581));
#1622=CARTESIAN_POINT('Origin',(170.220353144574,-63.6471555977134,77.150849968004));
#1623=CARTESIAN_POINT('Origin',(2.70458499559036,-122.464234464433,72.484098274713));
#1624=CARTESIAN_POINT('',(2.70458499559036,-124.755482270044,72.2836400663934));
#1625=CARTESIAN_POINT('',(2.70458499559036,-124.755482270044,72.2836400663934));
#1626=CARTESIAN_POINT('Origin',(2.70458499559035,-122.464234464433,72.4840982747091));
#1627=CARTESIAN_POINT('Origin',(2.70458499559036,-122.464234464433,72.484098274713));
#1628=CARTESIAN_POINT('',(2.70458499559036,-126.4490132568,72.1354753037224));
#1629=CARTESIAN_POINT('',(2.70458499559036,-126.4490132568,72.1354753037224));
#1630=CARTESIAN_POINT('Origin',(2.70458499559035,-122.464234464433,72.4840982747091));
#1631=CARTESIAN_POINT('Origin',(170.220353144574,-63.6471555977134,77.150849968004));
#1632=CARTESIAN_POINT('Origin',(337.703230521981,-4.83008037044949,81.8176954067351));
#1633=CARTESIAN_POINT('',(337.703230521981,-7.12132817606051,81.6172371984155));
#1634=CARTESIAN_POINT('',(337.703230521981,-7.12132817606051,81.6172371984155));
#1635=CARTESIAN_POINT('Origin',(337.703230521981,-4.83008037044913,81.8176954067309));
#1636=CARTESIAN_POINT('Origin',(337.703230521981,-4.83008037044949,81.8176954067351));
#1637=CARTESIAN_POINT('',(337.703230521981,-8.81485916281649,81.4690724357445));
#1638=CARTESIAN_POINT('',(337.703230521981,-8.81485916281649,81.4690724357445));
#1639=CARTESIAN_POINT('Origin',(337.703230521981,-4.83008037044913,81.8176954067309));
#1640=CARTESIAN_POINT('Origin',(170.220353144574,-63.6471555977134,77.150849968004));
#1641=CARTESIAN_POINT('',(83.9703470569985,0.0878895385999623,82.9736090351746));
#1642=CARTESIAN_POINT('',(176.903874131455,-126.405758360987,71.6410695822208));
#1643=CARTESIAN_POINT('Origin',(176.903874131455,-122.420979568619,71.9896925532074));
#1644=CARTESIAN_POINT('',(187.948842173515,-26.7835497668842,80.3252961248175));
#1645=CARTESIAN_POINT('Origin',(187.948842173515,-22.7987709745169,80.6739190958041));
#1646=CARTESIAN_POINT('',(107.704156518356,-126.622180067623,71.8200384106849));
#1647=CARTESIAN_POINT('Origin',(107.704156518356,-122.637401275256,72.1686613816716));
#1648=CARTESIAN_POINT('',(107.704160523027,-26.8034743654028,80.5530435560068));
#1649=CARTESIAN_POINT('Origin',(107.704160523027,-22.8186955730355,80.9016665269935));
#1650=CARTESIAN_POINT('Origin',(107.704160523027,-22.8186955730358,80.9016665269974));
#1651=CARTESIAN_POINT('',(107.704160523027,-25.1099433786468,80.7012083186778));
#1652=CARTESIAN_POINT('',(107.704160523027,-25.1099433786468,80.7012083186778));
#1653=CARTESIAN_POINT('Origin',(107.704160523027,-22.8186955730355,80.9016665269935));
#1654=CARTESIAN_POINT('Origin',(107.704160523027,-22.8186955730358,80.9016665269974));
#1655=CARTESIAN_POINT('',(107.704160523027,-26.8034743654028,80.5530435560068));
#1656=CARTESIAN_POINT('Origin',(170.220353144574,-63.6471555977134,77.150849968004));
#1657=CARTESIAN_POINT('Origin',(176.903874131455,-122.42097956862,71.9896925532114));
#1658=CARTESIAN_POINT('',(176.903874131455,-124.712227374231,71.7892343448918));
#1659=CARTESIAN_POINT('',(176.903874131455,-124.712227374231,71.7892343448918));
#1660=CARTESIAN_POINT('Origin',(176.903874131455,-122.420979568619,71.9896925532074));
#1661=CARTESIAN_POINT('Origin',(176.903874131455,-122.42097956862,71.9896925532114));
#1662=CARTESIAN_POINT('',(176.903874131455,-126.405758360987,71.6410695822208));
#1663=CARTESIAN_POINT('Origin',(170.220353144574,-63.6471555977134,77.150849968004));
#1664=CARTESIAN_POINT('Origin',(107.704156518356,-122.637401275256,72.1686613816756));
#1665=CARTESIAN_POINT('',(107.704156518356,-124.928649080867,71.9682031733559));
#1666=CARTESIAN_POINT('',(107.704156518356,-124.928649080867,71.9682031733559));
#1667=CARTESIAN_POINT('Origin',(107.704156518356,-122.637401275256,72.1686613816716));
#1668=CARTESIAN_POINT('Origin',(107.704156518356,-122.637401275256,72.1686613816756));
#1669=CARTESIAN_POINT('',(107.704156518356,-126.622180067623,71.8200384106849));
#1670=CARTESIAN_POINT('Origin',(170.220353144574,-63.6471555977134,77.150849968004));
#1671=CARTESIAN_POINT('Origin',(187.948842173515,-22.7987709745172,80.6739190958081));
#1672=CARTESIAN_POINT('',(187.948842173515,-25.0900187801283,80.4734608874885));
#1673=CARTESIAN_POINT('',(187.948842173515,-25.0900187801283,80.4734608874885));
#1674=CARTESIAN_POINT('Origin',(187.948842173515,-22.7987709745169,80.6739190958041));
#1675=CARTESIAN_POINT('Origin',(187.948842173515,-22.7987709745172,80.6739190958081));
#1676=CARTESIAN_POINT('',(187.948842173515,-26.7835497668842,80.3252961248174));
#1677=CARTESIAN_POINT('Origin',(170.220353144574,-63.6471555977134,77.150849968004));
#1678=CARTESIAN_POINT('Origin',(-2.27965903057715,0.0664730618405429,83.2184004846756));
#1679=CARTESIAN_POINT('Origin',(170.220353144574,-63.6471555977134,77.150849968004));
#1680=UNCERTAINTY_MEASURE_WITH_UNIT(LENGTH_MEASURE(0.01),#1684,
'DISTANCE_ACCURACY_VALUE',
'Maximum model space distance between geometric entities at asserted c
onnectivities');
#1681=UNCERTAINTY_MEASURE_WITH_UNIT(LENGTH_MEASURE(0.01),#1684,
'DISTANCE_ACCURACY_VALUE',
'Maximum model space distance between geometric entities at asserted c
onnectivities');
#1682=(
GEOMETRIC_REPRESENTATION_CONTEXT(3)
GLOBAL_UNCERTAINTY_ASSIGNED_CONTEXT((#1680))
GLOBAL_UNIT_ASSIGNED_CONTEXT((#1684,#1686,#1687))
REPRESENTATION_CONTEXT('','3D')
);
#1683=(
GEOMETRIC_REPRESENTATION_CONTEXT(3)
GLOBAL_UNCERTAINTY_ASSIGNED_CONTEXT((#1681))
GLOBAL_UNIT_ASSIGNED_CONTEXT((#1684,#1686,#1687))
REPRESENTATION_CONTEXT('','3D')
);
#1684=(
LENGTH_UNIT()
NAMED_UNIT(*)
SI_UNIT(.MILLI.,.METRE.)
);
#1685=(
LENGTH_UNIT()
NAMED_UNIT(*)
SI_UNIT($,.METRE.)
);
#1686=(
NAMED_UNIT(*)
PLANE_ANGLE_UNIT()
SI_UNIT($,.RADIAN.)
);
#1687=(
NAMED_UNIT(*)
SI_UNIT($,.STERADIAN.)
SOLID_ANGLE_UNIT()
);
#1688=SHAPE_DEFINITION_REPRESENTATION(#1689,#1690);
#1689=PRODUCT_DEFINITION_SHAPE('',$,#1692);
#1690=SHAPE_REPRESENTATION('',(#944),#1682);
#1691=PRODUCT_DEFINITION_CONTEXT('part definition',#1696,'design');
#1692=PRODUCT_DEFINITION('2026-09-22-03-41-32-444',
'Pyae''s Keeb (Kicad) (~recovered)',#1693,#1691);
#1693=PRODUCT_DEFINITION_FORMATION('',$,#1698);
#1694=PRODUCT_RELATED_PRODUCT_CATEGORY(
'Pyae''s Keeb (Kicad) (~recovered)','Pyae''s Keeb (Kicad) (~recovered)',
(#1698));
#1695=APPLICATION_PROTOCOL_DEFINITION('international standard',
'automotive_design',2009,#1696);
#1696=APPLICATION_CONTEXT(
'Core Data for Automotive Mechanical Design Process');
#1697=PRODUCT_CONTEXT('part definition',#1696,'mechanical');
#1698=PRODUCT('2026-09-22-03-41-32-444',
'Pyae''s Keeb (Kicad) (~recovered)','KiCad electronic assembly',(#1697));
#1699=PRESENTATION_STYLE_ASSIGNMENT((#1700));
#1700=SURFACE_STYLE_USAGE(.BOTH.,#1701);
#1701=SURFACE_SIDE_STYLE('',(#1702));
#1702=SURFACE_STYLE_FILL_AREA(#1703);
#1703=FILL_AREA_STYLE('Steel - Satin',(#1704));
#1704=FILL_AREA_STYLE_COLOUR('Steel - Satin',#1705);
#1705=COLOUR_RGB('Steel - Satin',0.627450980392157,0.627450980392157,0.627450980392157);
ENDSEC;
END-ISO-10303-21;
